<svg xmlns="http://www.w3.org/2000/svg" width="296" height="466.67" viewBox="0 0 296 466.67"><defs><clipPath id="a" clipPathUnits="userSpaceOnUse"><path d="M-197.18.803H24.815V-349.2H-197.18Z"/></clipPath><clipPath id="c" clipPathUnits="userSpaceOnUse"><path d="M-3-141.87h106.78V43.781H-3Z"/></clipPath><clipPath id="b" clipPathUnits="userSpaceOnUse"><path d="M11692 0h296v466.67h-296z"/></clipPath><clipPath id="e" clipPathUnits="userSpaceOnUse"><path d="M-1.356-64.155h48.288v83.953H-1.356Z"/></clipPath><clipPath id="d" clipPathUnits="userSpaceOnUse"><path d="M11692 0h296v466.67h-296z"/></clipPath><clipPath id="g" clipPathUnits="userSpaceOnUse"><path d="M46.932 19.799H-1.356v-83.954h48.288Z"/></clipPath><clipPath id="f" clipPathUnits="userSpaceOnUse"><path d="M11692 0h296v466.67h-296z"/></clipPath></defs><path d="M0 0c-10.45 0-18.951 8.501-18.951 18.951V318.77c0 10.44 8.501 18.95 18.951 18.95h172.1c10.45 0 18.95-8.51 18.95-18.95V18.951C191.05 8.501 182.55 0 172.1 0Z" style="fill:#293492;fill-opacity:1;fill-rule:nonzero;stroke:none" transform="matrix(1.3333 0 0 -1.3333 33 459.36)"/><path d="M0 0h-172.1c-13.76 0-24.95-11.193-24.95-24.951V-324.76c0-13.76 11.19-24.96 24.95-24.96H0c13.758 0 24.951 11.2 24.951 24.96v299.809C24.951-11.193 13.758 0 0 0m0-12c7.153 0 12.951-5.798 12.951-12.951V-324.76c0-7.16-5.798-12.96-12.951-12.96h-172.1c-7.15 0-12.95 5.8-12.95 12.96v299.809c0 7.153 5.8 12.951 12.95 12.951z" clip-path="url(#a)" style="fill:#fff;fill-opacity:1;fill-rule:nonzero;stroke:none" transform="matrix(1.3333 0 0 -1.3333 263 1.07)"/><g clip-path="url(#b)" transform="translate(-11692)"><text xml:space="preserve" clip-path="url(#c)" transform="translate(11763 320.58)scale(1.3333)"><tspan x="0" y="0" style="font-variant:normal;font-weight:700;font-stretch:normal;font-size:160px;font-family:Rockwell;writing-mode:lr-tb;fill:#000;fill-opacity:1;fill-rule:nonzero;stroke:none">8</tspan></text><path d="M0 0q-5.273 6.953-14.648 10.703t-21.016 3.75q-11.407 0-20.664-3.828-9.259-3.828-14.61-10.977-5.352-7.148-5.351-16.523 0-16.797 17.578-26.563-21.094-8.984-21.094-28.515 0-10.704 5.43-18.633 5.428-7.931 15.43-12.144c6.666-2.82 14.375-4.22 23.125-4.22 13.645 0 24.492 3.01 32.539 9.02q12.07 9.023 12.07 25.508 0 20.625-20.781 28.984Q5.273-33.359 5.273-16.406 5.273-6.954 0 0Zm-45.586-30.586q-3.829 4.101-3.828 10.508 0 7.5 3.75 11.172t9.844 3.672q6.873 0 10.547-3.907 3.67-3.907 3.671-10.625 0-6.875-3.828-10.898-3.828-4.024-10.234-4.024-6.095 0-9.922 4.102zm-1.367-51.797q-4.57 4.96-4.57 12.383 0 7.343 4.57 12.461 4.57 5.117 11.445 5.117 7.187 0 11.836-5.117 4.648-5.118 4.649-12.461 0-7.423-4.571-12.383-4.571-4.962-11.758-4.961-7.03 0-11.601 4.961z" style="fill:none;stroke:#000;stroke-width:6;stroke-linecap:butt;stroke-linejoin:miter;stroke-miterlimit:10;stroke-dasharray:none;stroke-opacity:1" transform="matrix(1.3333 0 0 -1.3333 11877 180.06)"/></g><text xml:space="preserve" transform="translate(78 316.58)scale(1.3333)"><tspan x="0" y="0" style="font-variant:normal;font-weight:700;font-stretch:normal;font-size:160px;font-family:Rockwell;writing-mode:lr-tb;fill:#fff;fill-opacity:1;fill-rule:nonzero;stroke:none">8</tspan></text><path d="M0 0q-5.273 6.953-14.648 10.703t-21.016 3.75q-11.407 0-20.664-3.828-9.259-3.828-14.61-10.977-5.352-7.148-5.351-16.523 0-16.797 17.578-26.563-21.094-8.984-21.094-28.515 0-10.704 5.43-18.633 5.428-7.931 15.43-12.144c6.666-2.82 14.375-4.22 23.125-4.22 13.645 0 24.492 3.01 32.539 9.02q12.07 9.023 12.07 25.508 0 20.625-20.781 28.984Q5.273-33.359 5.273-16.406 5.273-6.954 0 0Zm-45.586-30.586q-3.829 4.101-3.828 10.508 0 7.5 3.75 11.172t9.844 3.672q6.873 0 10.547-3.907 3.67-3.907 3.671-10.625 0-6.875-3.828-10.898-3.828-4.024-10.234-4.024-6.095 0-9.922 4.102zm-1.367-51.797q-4.57 4.96-4.57 12.383 0 7.343 4.57 12.461 4.57 5.117 11.445 5.117 7.187 0 11.836-5.117 4.648-5.118 4.649-12.461 0-7.423-4.571-12.383-4.571-4.962-11.758-4.961-7.03 0-11.601 4.961z" style="fill:none;stroke:#231f20;stroke-width:6;stroke-linecap:butt;stroke-linejoin:miter;stroke-miterlimit:10;stroke-dasharray:none;stroke-opacity:1" transform="matrix(1.3333 0 0 -1.3333 192 176.06)"/><g clip-path="url(#d)" transform="translate(-11692)"><text xml:space="preserve" clip-path="url(#e)" transform="translate(11712 108.65)scale(1.3333)"><tspan x="0" y="0" style="font-variant:normal;font-weight:700;font-stretch:normal;font-size:72.3553px;font-family:Rockwell;writing-mode:lr-tb;fill:#000;fill-opacity:1;fill-rule:nonzero;stroke:none">8</tspan></text><path d="M0 0q-2.385 3.145-6.624 4.84-4.24 1.696-9.504 1.696-5.159 0-9.345-1.731t-6.606-4.964-2.421-7.472q0-7.596 7.949-12.012-9.539-4.063-9.539-12.896 0-4.84 2.456-8.426t6.978-5.493 10.457-1.908q9.256 0 14.715 4.08 5.459 4.081 5.459 11.536 0 9.326-9.398 13.107 7.808 4.557 7.808 12.224Q2.385-3.145 0 0Zm-20.615-13.832q-1.732 1.855-1.731 4.752 0 3.392 1.696 5.053 1.695 1.66 4.451 1.66 3.109 0 4.769-1.766 1.662-1.768 1.661-4.805 0-3.11-1.731-4.929t-4.628-1.819q-2.756 0-4.487 1.854zm-.618-23.423q-2.067 2.243-2.067 5.6 0 3.32 2.067 5.635 2.067 2.313 5.175 2.314 3.251 0 5.353-2.314t2.102-5.635q0-3.357-2.067-5.6-2.067-2.244-5.316-2.244-3.18 0-5.247 2.244z" style="fill:none;stroke:#000;stroke-width:2.713;stroke-linecap:butt;stroke-linejoin:miter;stroke-miterlimit:10;stroke-dasharray:none;stroke-opacity:1" transform="matrix(1.3333 0 0 -1.3333 11764 45.106)"/></g><text xml:space="preserve" transform="translate(27 104.65)scale(1.3333)"><tspan x="0" y="0" style="font-variant:normal;font-weight:700;font-stretch:normal;font-size:72.3553px;font-family:Rockwell;writing-mode:lr-tb;fill:#fff;fill-opacity:1;fill-rule:nonzero;stroke:none">8</tspan></text><path d="M0 0q-2.385 3.145-6.624 4.84-4.24 1.696-9.504 1.696-5.159 0-9.345-1.731t-6.606-4.964-2.421-7.472q0-7.596 7.949-12.012-9.539-4.063-9.539-12.896 0-4.84 2.456-8.426t6.978-5.493 10.457-1.908q9.256 0 14.715 4.08 5.459 4.081 5.459 11.536 0 9.326-9.398 13.107 7.808 4.557 7.808 12.224Q2.385-3.145 0 0Zm-20.615-13.832q-1.732 1.855-1.731 4.752 0 3.392 1.696 5.053 1.695 1.66 4.451 1.66 3.109 0 4.769-1.766 1.662-1.768 1.661-4.805 0-3.11-1.731-4.929t-4.628-1.819q-2.756 0-4.487 1.854zm-.618-23.423q-2.067 2.243-2.067 5.6 0 3.32 2.067 5.635 2.067 2.313 5.175 2.314 3.251 0 5.353-2.314t2.102-5.635q0-3.357-2.067-5.6-2.067-2.244-5.316-2.244-3.18 0-5.247 2.244z" style="fill:none;stroke:#231f20;stroke-width:2.713;stroke-linecap:butt;stroke-linejoin:miter;stroke-miterlimit:10;stroke-dasharray:none;stroke-opacity:1" transform="matrix(1.3333 0 0 -1.3333 78 41.106)"/><g clip-path="url(#f)" transform="translate(-11692)"><text xml:space="preserve" clip-path="url(#g)" transform="translate(11954 368.66)scale(-1.3333)"><tspan x="0" y="0" style="font-variant:normal;font-weight:700;font-stretch:normal;font-size:72.3553px;font-family:Rockwell;writing-mode:lr-tb;fill:#000;fill-opacity:1;fill-rule:nonzero;stroke:none">8</tspan></text><path d="M0 0q2.385-3.144 6.624-4.84 4.24-1.696 9.504-1.696 5.159 0 9.345 1.731T32.079.159 34.5 7.631q0 7.596-7.949 12.012 9.539 4.063 9.539 12.896 0 4.84-2.456 8.426t-6.978 5.493-10.457 1.908q-9.256 0-14.715-4.08-5.459-4.081-5.459-11.536 0-9.326 9.398-13.107-7.808-4.557-7.808-12.224Q-2.385 3.145 0 0Zm20.615 13.832q1.732-1.855 1.731-4.752 0-3.392-1.696-5.053-1.695-1.66-4.451-1.66-3.109 0-4.769 1.766-1.662 1.768-1.661 4.805 0 3.11 1.731 4.929t4.628 1.819q2.756 0 4.487-1.854zm.618 23.423q2.067-2.243 2.067-5.6 0-3.32-2.067-5.635-2.067-2.313-5.175-2.314-3.251 0-5.353 2.314t-2.102 5.635q0 3.357 2.067 5.6 2.067 2.244 5.316 2.244 3.18 0 5.247-2.244z" style="fill:none;stroke:#000;stroke-width:2.713;stroke-linecap:butt;stroke-linejoin:miter;stroke-miterlimit:10;stroke-dasharray:none;stroke-opacity:1" transform="matrix(1.3333 0 0 -1.3333 11903 432.2)"/></g><text xml:space="preserve" transform="translate(269 364.66)scale(-1.3333)"><tspan x="0" y="0" style="font-variant:normal;font-weight:700;font-stretch:normal;font-size:72.3553px;font-family:Rockwell;writing-mode:lr-tb;fill:#fff;fill-opacity:1;fill-rule:nonzero;stroke:none">8</tspan></text><path d="M0 0q2.385-3.144 6.624-4.84 4.24-1.696 9.504-1.696 5.159 0 9.345 1.731T32.079.159 34.5 7.631q0 7.596-7.949 12.012 9.539 4.063 9.539 12.896 0 4.84-2.456 8.426t-6.978 5.493-10.457 1.908q-9.256 0-14.715-4.08-5.459-4.081-5.459-11.536 0-9.326 9.398-13.107-7.808-4.557-7.808-12.224Q-2.385 3.145 0 0Zm20.615 13.832q1.732-1.855 1.731-4.752 0-3.392-1.696-5.053-1.695-1.66-4.451-1.66-3.109 0-4.769 1.766-1.662 1.768-1.661 4.805 0 3.11 1.731 4.929t4.628 1.819q2.756 0 4.487-1.854zm.618 23.423q2.067-2.243 2.067-5.6 0-3.32-2.067-5.635-2.067-2.313-5.175-2.314-3.251 0-5.353 2.314t-2.102 5.635q0 3.357 2.067 5.6 2.067 2.244 5.316 2.244 3.18 0 5.247-2.244z" style="fill:none;stroke:#231f20;stroke-width:2.713;stroke-linecap:butt;stroke-linejoin:miter;stroke-miterlimit:10;stroke-dasharray:none;stroke-opacity:1" transform="matrix(1.3333 0 0 -1.3333 217 428.2)"/><path d="M0 0c46.209 70.703 52.909 148.12 14.964 172.92S-91.2 160.51-137.41 89.805c-46.21-70.702-52.91-148.122-14.96-172.921C-114.43-107.92-46.209-70.703 0 0Z" style="fill:none;stroke:#fff;stroke-width:8.608;stroke-linecap:butt;stroke-linejoin:miter;stroke-miterlimit:10;stroke-dasharray:none;stroke-opacity:1" transform="matrix(1.3333 0 0 -1.3333 241 294.96)"/></svg>