<svg xmlns="http://www.w3.org/2000/svg" width="296" height="466.67" viewBox="0 0 296 466.67"><defs><clipPath id="a" clipPathUnits="userSpaceOnUse"><path d="M-197.15.142H24.848V-349.86H-197.15Z"/></clipPath><clipPath id="c" clipPathUnits="userSpaceOnUse"><path d="M-3-141.87h106.78V43.781H-3Z"/></clipPath><clipPath id="b" clipPathUnits="userSpaceOnUse"><path d="M10428 0h296v466.67h-296z"/></clipPath><clipPath id="e" clipPathUnits="userSpaceOnUse"><path d="M-1.356-64.155h48.288v83.953H-1.356Z"/></clipPath><clipPath id="d" clipPathUnits="userSpaceOnUse"><path d="M10428 0h296v466.67h-296z"/></clipPath><clipPath id="g" clipPathUnits="userSpaceOnUse"><path d="M46.932 19.799H-1.356v-83.954h48.288Z"/></clipPath><clipPath id="f" clipPathUnits="userSpaceOnUse"><path d="M10428 0h296v466.67h-296z"/></clipPath></defs><path d="M0 0c-10.45 0-18.951 8.501-18.951 18.951V318.76c0 10.45 8.501 18.96 18.951 18.96h172.1c10.45 0 18.95-8.51 18.95-18.96V18.951C191.05 8.501 182.55 0 172.1 0Z" style="fill:#293492;fill-opacity:1;fill-rule:nonzero;stroke:none" transform="matrix(1.3333 0 0 -1.3333 33 458.48)"/><path d="M0 0h-172.1c-13.76 0-24.95-11.193-24.95-24.951V-324.76c0-13.76 11.19-24.96 24.95-24.96H0c13.758 0 24.951 11.2 24.951 24.96v299.809C24.951-11.193 13.758 0 0 0m0-12c7.153 0 12.951-5.798 12.951-12.951V-324.76c0-7.16-5.798-12.96-12.951-12.96h-172.1c-7.15 0-12.95 5.8-12.95 12.96v299.809c0 7.153 5.8 12.951 12.95 12.951z" clip-path="url(#a)" style="fill:#fff;fill-opacity:1;fill-rule:nonzero;stroke:none" transform="matrix(1.3333 0 0 -1.3333 263 .19)"/><g clip-path="url(#b)" transform="translate(-10428)"><text xml:space="preserve" clip-path="url(#c)" transform="translate(10499 319.7)scale(1.3333)"><tspan x="0" y="0" style="font-variant:normal;font-weight:700;font-stretch:normal;font-size:160px;font-family:Rockwell;writing-mode:lr-tb;fill:#000;fill-opacity:1;fill-rule:nonzero;stroke:none">4</tspan></text><path d="M0 0v68.672h-25.391l-56.64-72.188q2.499-4.766 6.406-15.625h48.594v-13.437H-41.25v-18.594h52.188v18.594H0v13.437h12.5V0Zm-27.031 33.984V0h-27.188z" style="fill:none;stroke:#000;stroke-width:6;stroke-linecap:butt;stroke-linejoin:miter;stroke-miterlimit:10;stroke-dasharray:none;stroke-opacity:1" transform="matrix(1.3333 0 0 -1.3333 10612 251.47)"/></g><text xml:space="preserve" transform="translate(78 315.7)scale(1.3333)"><tspan x="0" y="0" style="font-variant:normal;font-weight:700;font-stretch:normal;font-size:160px;font-family:Rockwell;writing-mode:lr-tb;fill:#fff;fill-opacity:1;fill-rule:nonzero;stroke:none">4</tspan></text><path d="M0 0v68.672h-25.391l-56.64-72.188q2.499-4.766 6.406-15.625h48.594v-13.437H-41.25v-18.594h52.188v18.594H0v13.437h12.5V0Zm-27.031 33.984V0h-27.188z" style="fill:none;stroke:#231f20;stroke-width:6;stroke-linecap:butt;stroke-linejoin:miter;stroke-miterlimit:10;stroke-dasharray:none;stroke-opacity:1" transform="matrix(1.3333 0 0 -1.3333 190 247.47)"/><g clip-path="url(#d)" transform="translate(-10428)"><text xml:space="preserve" clip-path="url(#e)" transform="translate(10448 107.77)scale(1.3333)"><tspan x="0" y="0" style="font-variant:normal;font-weight:700;font-stretch:normal;font-size:72.3553px;font-family:Rockwell;writing-mode:lr-tb;fill:#000;fill-opacity:1;fill-rule:nonzero;stroke:none">4</tspan></text><path d="M0 0v31.055h-11.482L-37.097-1.59q1.13-2.155 2.898-7.066h21.974v-6.076h-6.429v-8.409h23.6v8.409H0v6.076h5.652V0Zm-12.225 15.368V0H-24.52Z" style="fill:none;stroke:#000;stroke-width:2.713;stroke-linecap:butt;stroke-linejoin:miter;stroke-miterlimit:10;stroke-dasharray:none;stroke-opacity:1" transform="matrix(1.3333 0 0 -1.3333 10499 76.917)"/></g><text xml:space="preserve" transform="translate(27 103.77)scale(1.3333)"><tspan x="0" y="0" style="font-variant:normal;font-weight:700;font-stretch:normal;font-size:72.3553px;font-family:Rockwell;writing-mode:lr-tb;fill:#fff;fill-opacity:1;fill-rule:nonzero;stroke:none">4</tspan></text><path d="M0 0v31.055h-11.482L-37.097-1.59q1.13-2.155 2.898-7.066h21.974v-6.076h-6.429v-8.409h23.6v8.409H0v6.076h5.652V0Zm-12.225 15.368V0H-24.52Z" style="fill:none;stroke:#231f20;stroke-width:2.713;stroke-linecap:butt;stroke-linejoin:miter;stroke-miterlimit:10;stroke-dasharray:none;stroke-opacity:1" transform="matrix(1.3333 0 0 -1.3333 78 72.917)"/><g clip-path="url(#f)" transform="translate(-10428)"><text xml:space="preserve" clip-path="url(#g)" transform="translate(10690 367.77)scale(-1.3333)"><tspan x="0" y="0" style="font-variant:normal;font-weight:700;font-stretch:normal;font-size:72.3553px;font-family:Rockwell;writing-mode:lr-tb;fill:#000;fill-opacity:1;fill-rule:nonzero;stroke:none">4</tspan></text><path d="M0 0v-31.055h11.482L37.097 1.59q-1.13 2.155-2.898 7.066H12.225v6.076h6.429v8.409h-23.6v-8.409H0V8.656h-5.652V0Zm12.225-15.368V0H24.52Z" style="fill:none;stroke:#000;stroke-width:2.713;stroke-linecap:butt;stroke-linejoin:miter;stroke-miterlimit:10;stroke-dasharray:none;stroke-opacity:1" transform="matrix(1.3333 0 0 -1.3333 10639 398.63)"/></g><text xml:space="preserve" transform="translate(269 363.77)scale(-1.3333)"><tspan x="0" y="0" style="font-variant:normal;font-weight:700;font-stretch:normal;font-size:72.3553px;font-family:Rockwell;writing-mode:lr-tb;fill:#fff;fill-opacity:1;fill-rule:nonzero;stroke:none">4</tspan></text><path d="M0 0v-31.055h11.482L37.097 1.59q-1.13 2.155-2.898 7.066H12.225v6.076h6.429v8.409h-23.6v-8.409H0V8.656h-5.652V0Zm12.225-15.368V0H24.52Z" style="fill:none;stroke:#231f20;stroke-width:2.713;stroke-linecap:butt;stroke-linejoin:miter;stroke-miterlimit:10;stroke-dasharray:none;stroke-opacity:1" transform="matrix(1.3333 0 0 -1.3333 218 394.63)"/><path d="M0 0c46.209 70.703 52.909 148.12 14.964 172.92S-91.2 160.51-137.41 89.805c-46.21-70.702-52.91-148.122-14.96-172.921C-114.43-107.92-46.209-70.703 0 0Z" style="fill:none;stroke:#fff;stroke-width:8.608;stroke-linecap:butt;stroke-linejoin:miter;stroke-miterlimit:10;stroke-dasharray:none;stroke-opacity:1" transform="matrix(1.3333 0 0 -1.3333 241 294.08)"/></svg>