<svg xmlns="http://www.w3.org/2000/svg" width="296" height="466.67" viewBox="0 0 296 466.67"><defs><clipPath id="a" clipPathUnits="userSpaceOnUse"><path d="M-197.32.142H24.675V-349.86H-197.32Z"/></clipPath><clipPath id="c" clipPathUnits="userSpaceOnUse"><path d="M-53.582 0h97.997v-99.953h-97.997z"/></clipPath><clipPath id="b" clipPathUnits="userSpaceOnUse"><path d="M12324 0h296v466.67h-296z"/></clipPath><clipPath id="e" clipPathUnits="userSpaceOnUse"><path d="M-22.434 0h41.048v-41.89h-41.048z"/></clipPath><clipPath id="d" clipPathUnits="userSpaceOnUse"><path d="M12324 0h296v466.67h-296z"/></clipPath><clipPath id="g" clipPathUnits="userSpaceOnUse"><path d="M-22.455 0h41.047v-41.889h-41.047Z"/></clipPath><clipPath id="f" clipPathUnits="userSpaceOnUse"><path d="M12324 0h296v466.67h-296z"/></clipPath></defs><path d="M0 0c-10.45 0-18.951 8.501-18.951 18.951V318.76c0 10.45 8.501 18.96 18.951 18.96h172.1c10.45 0 18.95-8.51 18.95-18.96V18.951C191.05 8.501 182.55 0 172.1 0Z" style="fill:#293492;fill-opacity:1;fill-rule:nonzero;stroke:none" transform="matrix(1.3333 0 0 -1.3333 34 458.48)"/><path d="M0 0h-172.1c-13.76 0-24.95-11.193-24.95-24.951V-324.76c0-13.76 11.19-24.96 24.95-24.96H0c13.758 0 24.951 11.2 24.951 24.96v299.809C24.951-11.193 13.758 0 0 0m0-12c7.153 0 12.951-5.798 12.951-12.951V-324.76c0-7.16-5.798-12.96-12.951-12.96h-172.1c-7.15 0-12.95 5.8-12.95 12.96v299.809c0 7.153 5.8 12.951 12.95 12.951z" clip-path="url(#a)" style="fill:#fff;fill-opacity:1;fill-rule:nonzero;stroke:none" transform="matrix(1.3333 0 0 -1.3333 263 .19)"/><path d="M0 0c46.209 70.703 52.909 148.12 14.964 172.92S-91.2 160.51-137.41 89.805c-46.21-70.702-52.91-148.122-14.96-172.921C-114.43-107.92-46.209-70.703 0 0Z" style="fill:none;stroke:#fff;stroke-width:8.608;stroke-linecap:butt;stroke-linejoin:miter;stroke-miterlimit:10;stroke-dasharray:none;stroke-opacity:1" transform="matrix(1.3333 0 0 -1.3333 241 294.08)"/><path d="m0 0-50.153-43.455" style="fill:none;stroke:#231f20;stroke-width:5;stroke-linecap:butt;stroke-linejoin:miter;stroke-miterlimit:10;stroke-dasharray:none;stroke-opacity:1" transform="matrix(1.3333 0 0 -1.3333 175 197.09)"/><path d="m0 0 51.157 44.538" style="fill:none;stroke:#231f20;stroke-width:5;stroke-linecap:butt;stroke-linejoin:miter;stroke-miterlimit:10;stroke-dasharray:none;stroke-opacity:1" transform="matrix(1.3333 0 0 -1.3333 119 271.1)"/><g clip-path="url(#b)" transform="translate(-12324)"><path d="M0 0c-15.411 0-30.781-7.608-41.115-20.352-8.42-10.382-12.838-23.122-12.442-35.873.419-13.49 6.384-25.869 16.365-33.963 7.878-6.388 17.569-9.765 28.026-9.765 15.411 0 30.781 7.608 41.115 20.352 8.419 10.382 12.837 23.122 12.441 35.873-.419 13.49-6.384 25.869-16.365 33.963C20.147-3.377 10.456 0 0 0m0-17c6.275 0 12.345-1.936 17.318-5.969 12.883-10.448 13.522-31.009 1.427-45.925C11.318-78.052.816-82.953-9.166-82.953c-6.275 0-12.345 1.936-17.318 5.969-12.884 10.448-13.523 31.009-1.427 45.925C-20.484-21.901-9.983-17 0-17" clip-path="url(#c)" style="fill:#000;fill-opacity:1;fill-rule:nonzero;stroke:none" transform="matrix(1.3333 0 0 -1.3333 12469 177.79)"/><path d="M0 0c-14.516 0-29.015-7.193-38.785-19.241-7.966-9.823-12.147-21.859-11.773-33.891.398-12.804 5.816-24.071 15.256-31.726 7.337-5.95 16.375-9.095 26.136-9.095 14.516 0 29.015 7.193 38.785 19.241 16.938 20.888 15.376 50.324-3.483 65.617C18.798-3.145 9.761 0 0 0m0-14c6.275 0 12.345-1.936 17.318-5.969 12.884-10.448 13.522-31.009 1.427-45.925C11.318-75.052.817-79.953-9.166-79.953c-6.275 0-12.345 1.936-17.318 5.969-12.884 10.448-13.523 31.009-1.427 45.925C-20.484-18.901-9.983-14 0-14" style="fill:#000;fill-opacity:1;fill-rule:nonzero;stroke:none" transform="matrix(1.3333 0 0 -1.3333 12469 181.79)"/><path d="M0 0c-9.983 0-20.484-4.901-27.911-14.059-12.095-14.916-11.457-35.477 1.427-45.925 4.973-4.033 11.043-5.969 17.318-5.969 9.983 0 20.484 4.901 27.911 14.059 12.096 14.916 11.457 35.477-1.427 45.925C12.345-1.936 6.275 0 0 0m0-2.732c5.88-.001 11.274-1.854 15.597-5.359 11.693-9.482 12.153-28.36 1.026-42.082C9.998-58.343.357-63.221-9.166-63.221c-5.88 0-11.273 1.853-15.597 5.359-5.605 4.545-8.826 11.382-9.07 19.25-.25 8.018 2.607 16.127 8.044 22.832C-19.163-7.61-9.522-2.732 0-2.732" style="fill:#000;fill-opacity:1;fill-rule:nonzero;stroke:none" transform="matrix(1.3333 0 0 -1.3333 12469 200.46)"/></g><path d="M0 0c-15.411 0-30.781-7.608-41.115-20.352-8.42-10.382-12.838-23.122-12.442-35.873.419-13.49 6.384-25.869 16.365-33.963 7.878-6.388 17.569-9.765 28.026-9.765 15.411 0 30.781 7.608 41.115 20.352 8.419 10.382 12.837 23.122 12.441 35.873-.419 13.49-6.384 25.869-16.365 33.963C20.147-3.377 10.456 0 0 0m0-17c6.275 0 12.345-1.936 17.318-5.969 12.883-10.448 13.522-31.009 1.427-45.925C11.318-78.052.816-82.953-9.166-82.953c-6.275 0-12.345 1.936-17.318 5.969-12.884 10.448-13.523 31.009-1.427 45.925C-20.484-21.901-9.983-17 0-17" style="fill:#231f20;fill-opacity:1;fill-rule:nonzero;stroke:none" transform="matrix(1.3333 0 0 -1.3333 154 168.46)"/><path d="M0 0c-14.516 0-29.015-7.193-38.785-19.241-7.966-9.823-12.147-21.859-11.773-33.891.398-12.804 5.816-24.071 15.256-31.726 7.337-5.95 16.375-9.095 26.136-9.095 14.516 0 29.015 7.193 38.785 19.241 16.938 20.888 15.376 50.324-3.483 65.617C18.798-3.145 9.761 0 0 0m0-14c6.275 0 12.345-1.936 17.318-5.969 12.884-10.448 13.522-31.009 1.427-45.925C11.318-75.052.817-79.953-9.166-79.953c-6.275 0-12.345 1.936-17.318 5.969-12.884 10.448-13.523 31.009-1.427 45.925C-20.484-18.901-9.983-14 0-14" style="fill:#fff;fill-opacity:1;fill-rule:nonzero;stroke:none" transform="matrix(1.3333 0 0 -1.3333 154 172.46)"/><path d="M0 0c-9.983 0-20.484-4.901-27.911-14.059-12.095-14.916-11.457-35.477 1.427-45.925 4.973-4.033 11.043-5.969 17.318-5.969 9.983 0 20.484 4.901 27.911 14.059 12.096 14.916 11.457 35.477-1.427 45.925C12.345-1.936 6.275 0 0 0m0-2.732c5.88-.001 11.274-1.854 15.597-5.359 11.693-9.482 12.153-28.36 1.026-42.082C9.998-58.343.357-63.221-9.166-63.221c-5.88 0-11.273 1.853-15.597 5.359-5.605 4.545-8.826 11.382-9.07 19.25-.25 8.018 2.607 16.127 8.044 22.832C-19.163-7.61-9.522-2.732 0-2.732" style="fill:#231f20;fill-opacity:1;fill-rule:nonzero;stroke:none" transform="matrix(1.3333 0 0 -1.3333 154 191.13)"/><path d="m0 0 9.464-10.923 59.885 51.887-9.464 10.923Z" style="fill:#fff;fill-opacity:1;fill-rule:nonzero;stroke:none" transform="matrix(1.3333 0 0 -1.3333 105 257.44)"/><path d="m0 0-21.018-18.212" style="fill:none;stroke:#231f20;stroke-width:2.095;stroke-linecap:butt;stroke-linejoin:miter;stroke-miterlimit:10;stroke-dasharray:none;stroke-opacity:1" transform="matrix(1.3333 0 0 -1.3333 69 37.428)"/><path d="m0 0 21.439 18.665" style="fill:none;stroke:#231f20;stroke-width:2.095;stroke-linecap:butt;stroke-linejoin:miter;stroke-miterlimit:10;stroke-dasharray:none;stroke-opacity:1" transform="matrix(1.3333 0 0 -1.3333 45 68.448)"/><g clip-path="url(#d)" transform="translate(-12324)"><path d="M0 0c-6.458 0-12.9-3.189-17.231-8.529-7.535-9.293-6.797-22.422 1.645-29.268 3.301-2.677 7.362-4.092 11.745-4.092 6.458 0 12.9 3.188 17.231 8.529 3.528 4.351 5.38 9.69 5.214 15.034-.176 5.654-2.676 10.842-6.859 14.234C8.444-1.415 4.382 0 0 0m0-7.125c2.63 0 5.174-.811 7.258-2.501 5.399-4.379 5.667-12.996.598-19.247-3.113-3.838-7.514-5.892-11.697-5.892-2.63 0-5.174.812-7.258 2.502-5.399 4.378-5.667 12.995-.598 19.246C-8.584-9.178-4.184-7.125 0-7.125" clip-path="url(#e)" style="fill:#000;fill-opacity:1;fill-rule:nonzero;stroke:none" transform="matrix(1.3333 0 0 -1.3333 12380 29.342)"/><path d="M0 0c-6.083 0-12.16-3.015-16.254-8.064-7.099-8.754-6.444-21.09 1.459-27.499 3.075-2.494 6.863-3.812 10.954-3.812 6.083 0 12.159 3.015 16.254 8.064 3.338 4.117 5.09 9.161 4.934 14.203-.167 5.366-2.438 10.088-6.394 13.296C7.878-1.318 4.091 0 0 0m0-5.867c2.63 0 5.174-.812 7.258-2.502 5.399-4.378 5.667-12.995.598-19.246-3.113-3.839-7.514-5.892-11.697-5.892-2.63 0-5.174.811-7.258 2.501-5.4 4.379-5.667 12.996-.598 19.247C-8.585-7.921-4.184-5.867 0-5.867" style="fill:#000;fill-opacity:1;fill-rule:nonzero;stroke:none" transform="matrix(1.3333 0 0 -1.3333 12380 31.018)"/><path d="M0 0c-4.184 0-8.584-2.054-11.697-5.892-5.069-6.251-4.801-14.868.598-19.247 2.084-1.69 4.628-2.501 7.258-2.501 4.183 0 8.584 2.054 11.697 5.892 5.069 6.251 4.801 14.868-.598 19.246C5.174-.812 2.63 0 0 0m0-1.145c2.464 0 4.725-.777 6.537-2.246 2.348-1.905 3.699-4.77 3.801-8.067.104-3.361-1.093-6.759-3.371-9.569C4.19-24.451.15-26.495-3.841-26.495c-2.465 0-4.725.777-6.537 2.246-4.9 3.974-5.093 11.885-.43 17.636C-8.031-3.189-3.991-1.145 0-1.145" style="fill:#000;fill-opacity:1;fill-rule:nonzero;stroke:none" transform="matrix(1.3333 0 0 -1.3333 12380 38.841)"/></g><path d="M0 0c-6.458 0-12.9-3.189-17.231-8.529-7.535-9.293-6.797-22.422 1.645-29.268 3.301-2.677 7.362-4.092 11.745-4.092 6.458 0 12.9 3.188 17.231 8.529 3.528 4.351 5.38 9.69 5.214 15.034-.176 5.654-2.676 10.842-6.859 14.234C8.444-1.415 4.382 0 0 0m0-7.125c2.63 0 5.174-.811 7.258-2.501 5.399-4.379 5.667-12.996.598-19.247-3.113-3.838-7.514-5.892-11.697-5.892-2.63 0-5.174.812-7.258 2.502-5.399 4.378-5.667 12.995-.598 19.246C-8.584-9.178-4.184-7.125 0-7.125" style="fill:#231f20;fill-opacity:1;fill-rule:nonzero;stroke:none" transform="matrix(1.3333 0 0 -1.3333 60 25.431)"/><path d="M0 0c-6.083 0-12.16-3.015-16.254-8.064-7.099-8.754-6.444-21.09 1.459-27.499 3.075-2.494 6.863-3.812 10.954-3.812 6.083 0 12.159 3.015 16.254 8.064 3.338 4.117 5.09 9.161 4.934 14.203-.167 5.366-2.438 10.088-6.394 13.296C7.878-1.318 4.091 0 0 0m0-5.867c2.63 0 5.174-.812 7.258-2.502 5.399-4.378 5.667-12.995.598-19.246-3.113-3.839-7.514-5.892-11.697-5.892-2.63 0-5.174.811-7.258 2.501-5.4 4.379-5.667 12.996-.598 19.247C-8.585-7.921-4.184-5.867 0-5.867" style="fill:#fff;fill-opacity:1;fill-rule:nonzero;stroke:none" transform="matrix(1.3333 0 0 -1.3333 60 27.107)"/><path d="M0 0c-4.184 0-8.584-2.054-11.697-5.892-5.069-6.251-4.801-14.868.598-19.247 2.084-1.69 4.628-2.501 7.258-2.501 4.183 0 8.584 2.054 11.697 5.892 5.069 6.251 4.801 14.868-.598 19.246C5.174-.812 2.63 0 0 0m0-1.145c2.464 0 4.725-.777 6.537-2.246 2.348-1.905 3.699-4.77 3.801-8.067.104-3.361-1.093-6.759-3.371-9.569C4.19-24.451.15-26.495-3.841-26.495c-2.465 0-4.725.777-6.537 2.246-4.9 3.974-5.093 11.885-.43 17.636C-8.031-3.189-3.991-1.145 0-1.145" style="fill:#231f20;fill-opacity:1;fill-rule:nonzero;stroke:none" transform="matrix(1.3333 0 0 -1.3333 60 34.93)"/><path d="m0 0 3.966-4.578 25.097 21.746-3.966 4.577z" style="fill:#fff;fill-opacity:1;fill-rule:nonzero;stroke:none" transform="matrix(1.3333 0 0 -1.3333 40 62.721)"/><path d="m0 0-21.018-18.212" style="fill:none;stroke:#231f20;stroke-width:2.095;stroke-linecap:butt;stroke-linejoin:miter;stroke-miterlimit:10;stroke-dasharray:none;stroke-opacity:1" transform="matrix(1.3333 0 0 -1.3333 254 392.11)"/><path d="m0 0 21.439 18.665" style="fill:none;stroke:#231f20;stroke-width:2.095;stroke-linecap:butt;stroke-linejoin:miter;stroke-miterlimit:10;stroke-dasharray:none;stroke-opacity:1" transform="matrix(1.3333 0 0 -1.3333 231 423.13)"/><g clip-path="url(#f)" transform="translate(-12324)"><path d="M0 0c-6.459 0-12.9-3.189-17.231-8.529-3.528-4.351-5.38-9.69-5.214-15.034.175-5.654 2.675-10.842 6.858-14.234 3.302-2.677 7.363-4.092 11.746-4.092 6.458 0 12.9 3.188 17.23 8.529 7.536 9.292 6.798 22.422-1.644 29.268C8.444-1.415 4.382 0 0 0m0-7.125c2.63 0 5.174-.811 7.258-2.501 5.399-4.379 5.667-12.996.598-19.247-3.113-3.838-7.514-5.892-11.697-5.892-2.63 0-5.174.812-7.258 2.502-5.4 4.378-5.667 12.995-.598 19.246C-8.585-9.178-4.184-7.125 0-7.125" clip-path="url(#g)" style="fill:#000;fill-opacity:1;fill-rule:nonzero;stroke:none" transform="matrix(1.3333 0 0 -1.3333 12566 384.03)"/><path d="M0 0c-6.083 0-12.16-3.015-16.254-8.064-3.339-4.117-5.091-9.161-4.934-14.203.166-5.366 2.437-10.088 6.393-13.296 3.075-2.494 6.863-3.812 10.954-3.812 6.083 0 12.159 3.015 16.254 8.064 3.338 4.117 5.09 9.161 4.934 14.203-.167 5.366-2.438 10.088-6.394 13.296C7.878-1.318 4.091 0 0 0m0-5.867c2.63 0 5.174-.812 7.258-2.502 5.399-4.378 5.667-12.995.598-19.246-3.113-3.838-7.514-5.892-11.697-5.892-2.63 0-5.174.811-7.258 2.501-5.4 4.379-5.667 12.996-.598 19.247C-8.585-7.921-4.184-5.867 0-5.867" style="fill:#000;fill-opacity:1;fill-rule:nonzero;stroke:none" transform="matrix(1.3333 0 0 -1.3333 12566 385.71)"/><path d="M0 0c-4.184 0-8.584-2.054-11.697-5.892-5.069-6.251-4.802-14.868.598-19.247 2.084-1.69 4.628-2.501 7.258-2.501 4.184 0 8.584 2.054 11.697 5.892 5.069 6.251 4.801 14.868-.598 19.246C5.174-.812 2.63 0 0 0m0-1.145c2.464 0 4.725-.777 6.537-2.246 4.9-3.974 5.093-11.885.43-17.636C4.19-24.451.15-26.495-3.841-26.495c-2.465 0-4.725.777-6.537 2.246-2.349 1.905-3.699 4.77-3.801 8.067-.105 3.36 1.093 6.759 3.371 9.569C-8.031-3.189-3.991-1.145 0-1.145" style="fill:#000;fill-opacity:1;fill-rule:nonzero;stroke:none" transform="matrix(1.3333 0 0 -1.3333 12566 393.53)"/></g><path d="M0 0c-6.459 0-12.9-3.189-17.231-8.529-3.528-4.351-5.38-9.69-5.214-15.034.175-5.654 2.675-10.842 6.858-14.234 3.302-2.677 7.363-4.092 11.746-4.092 6.458 0 12.9 3.188 17.23 8.529 7.536 9.292 6.798 22.422-1.644 29.268C8.444-1.415 4.382 0 0 0m0-7.125c2.63 0 5.174-.811 7.258-2.501 5.399-4.379 5.667-12.996.598-19.247-3.113-3.838-7.514-5.892-11.697-5.892-2.63 0-5.174.812-7.258 2.502-5.4 4.378-5.667 12.995-.598 19.246C-8.585-9.178-4.184-7.125 0-7.125" style="fill:#231f20;fill-opacity:1;fill-rule:nonzero;stroke:none" transform="matrix(1.3333 0 0 -1.3333 246 380.12)"/><path d="M0 0c-6.083 0-12.16-3.015-16.254-8.064-3.339-4.117-5.091-9.161-4.934-14.203.166-5.366 2.437-10.088 6.393-13.296 3.075-2.494 6.863-3.812 10.954-3.812 6.083 0 12.159 3.015 16.254 8.064 3.338 4.117 5.09 9.161 4.934 14.203-.167 5.366-2.438 10.088-6.394 13.296C7.878-1.318 4.091 0 0 0m0-5.867c2.63 0 5.174-.812 7.258-2.502 5.399-4.378 5.667-12.995.598-19.246-3.113-3.838-7.514-5.892-11.697-5.892-2.63 0-5.174.811-7.258 2.501-5.4 4.379-5.667 12.996-.598 19.247C-8.585-7.921-4.184-5.867 0-5.867" style="fill:#fff;fill-opacity:1;fill-rule:nonzero;stroke:none" transform="matrix(1.3333 0 0 -1.3333 246 381.79)"/><path d="M0 0c-4.184 0-8.584-2.054-11.697-5.892-5.069-6.251-4.802-14.868.598-19.247 2.084-1.69 4.628-2.501 7.258-2.501 4.184 0 8.584 2.054 11.697 5.892 5.069 6.251 4.801 14.868-.598 19.246C5.174-.812 2.63 0 0 0m0-1.145c2.464 0 4.725-.777 6.537-2.246 4.9-3.974 5.093-11.885.43-17.636C4.19-24.451.15-26.495-3.841-26.495c-2.465 0-4.725.777-6.537 2.246-2.349 1.905-3.699 4.77-3.801 8.067-.105 3.36 1.093 6.759 3.371 9.569C-8.031-3.189-3.991-1.145 0-1.145" style="fill:#231f20;fill-opacity:1;fill-rule:nonzero;stroke:none" transform="matrix(1.3333 0 0 -1.3333 246 389.62)"/><path d="m0 0 3.966-4.578 25.097 21.746-3.966 4.577z" style="fill:#fff;fill-opacity:1;fill-rule:nonzero;stroke:none" transform="matrix(1.3333 0 0 -1.3333 225 417.41)"/></svg>