<svg xmlns="http://www.w3.org/2000/svg" width="296" height="466.67" viewBox="0 0 296 466.67"><defs><clipPath id="a" clipPathUnits="userSpaceOnUse"><path d="M-196.77.803H25.227V-349.2H-196.77Z"/></clipPath><clipPath id="c" clipPathUnits="userSpaceOnUse"><path d="M-2.992-141.1H103.23V43.539H-2.992Z"/></clipPath><clipPath id="b" clipPathUnits="userSpaceOnUse"><path d="M10112 0h296v466.67h-296z"/></clipPath><clipPath id="e" clipPathUnits="userSpaceOnUse"><path d="M-1.356-64.155h48.288v83.953H-1.356Z"/></clipPath><clipPath id="d" clipPathUnits="userSpaceOnUse"><path d="M10112 0h296v466.67h-296z"/></clipPath><clipPath id="g" clipPathUnits="userSpaceOnUse"><path d="M46.932 19.799H-1.356v-83.954h48.288Z"/></clipPath><clipPath id="f" clipPathUnits="userSpaceOnUse"><path d="M10112 0h296v466.67h-296z"/></clipPath></defs><path d="M0 0c-10.45 0-18.951 8.501-18.951 18.951V318.77c0 10.44 8.501 18.95 18.951 18.95h172.1c10.45 0 18.95-8.51 18.95-18.95V18.951C191.05 8.501 182.55 0 172.1 0Z" style="fill:#293492;fill-opacity:1;fill-rule:nonzero;stroke:none" transform="matrix(1.3333 0 0 -1.3333 33 459.36)"/><path d="M0 0h-172.1c-13.76 0-24.95-11.193-24.95-24.951V-324.76c0-13.76 11.19-24.96 24.95-24.96H0c13.758 0 24.951 11.2 24.951 24.96v299.809C24.951-11.193 13.758 0 0 0m0-12c7.153 0 12.951-5.798 12.951-12.951V-324.76c0-7.16-5.798-12.96-12.951-12.96h-172.1c-7.15 0-12.95 5.8-12.95 12.96v299.809c0 7.153 5.8 12.951 12.95 12.951z" clip-path="url(#a)" style="fill:#fff;fill-opacity:1;fill-rule:nonzero;stroke:none" transform="matrix(1.3333 0 0 -1.3333 262 1.07)"/><g clip-path="url(#b)" transform="translate(-10112)"><text xml:space="preserve" clip-path="url(#c)" transform="matrix(1.3333 0 0 1.3405 10183 320.58)"><tspan x="0" y="0" style="font-variant:normal;font-weight:700;font-stretch:normal;font-size:159.144px;font-family:Rockwell;writing-mode:lr-tb;fill:#000;fill-opacity:1;fill-rule:nonzero;stroke:none">3</tspan></text><path d="M0 0q-11.073 8.476-29.645 8.477-17.562 0-28.286-8.946T-69.897-25.43l24.633-2.109q0 15.703 13.988 15.703 6.215 0 10.296-3.437 4.079-3.438 4.079-8.907 0-6.875-6.061-10.547-6.062-3.672-16.862-3.828v-21.484q5.05.39 6.527.391 9.325 0 14.414-4.571t5.09-11.914q0-7.11-4.817-11.953-4.819-4.844-12.511-4.844-16.709 0-16.862 20.625l-25.489-2.109q3.03-38.515 45.071-38.516c8.392 0 15.929 1.48 22.612 4.45S6.112-101.3 9.869-95.859q5.634 8.163 5.634 18.711 0 20.468-22.068 28.046 17.638 8.282 17.638 26.016Q11.073-8.477 0 0Z" style="fill:none;stroke:#000;stroke-width:5.984;stroke-linecap:butt;stroke-linejoin:miter;stroke-miterlimit:10;stroke-dasharray:none;stroke-opacity:1" transform="matrix(1.3333 0 0 -1.3333 10287 172.09)"/></g><text xml:space="preserve" transform="matrix(1.3333 0 0 1.3405 78 316.58)"><tspan x="0" y="0" style="font-variant:normal;font-weight:700;font-stretch:normal;font-size:159.144px;font-family:Rockwell;writing-mode:lr-tb;fill:#fff;fill-opacity:1;fill-rule:nonzero;stroke:none">3</tspan></text><path d="M0 0q-11.073 8.476-29.645 8.477-17.562 0-28.286-8.946T-69.897-25.43l24.633-2.109q0 15.703 13.988 15.703 6.215 0 10.296-3.437 4.079-3.438 4.079-8.907 0-6.875-6.061-10.547-6.062-3.672-16.862-3.828v-21.484q5.05.39 6.527.391 9.325 0 14.414-4.571t5.09-11.914q0-7.11-4.817-11.953-4.819-4.844-12.511-4.844-16.709 0-16.862 20.625l-25.489-2.109q3.03-38.515 45.071-38.516c8.392 0 15.929 1.48 22.612 4.45S6.112-101.3 9.869-95.859q5.634 8.163 5.634 18.711 0 20.468-22.068 28.046 17.638 8.282 17.638 26.016Q11.073-8.477 0 0Z" style="fill:none;stroke:#231f20;stroke-width:5.984;stroke-linecap:butt;stroke-linejoin:miter;stroke-miterlimit:10;stroke-dasharray:none;stroke-opacity:1" transform="matrix(1.3333 0 0 -1.3333 182 168.09)"/><g clip-path="url(#d)" transform="translate(-10112)"><text xml:space="preserve" clip-path="url(#e)" transform="translate(10132 108.65)scale(1.3333)"><tspan x="0" y="0" style="font-variant:normal;font-weight:700;font-stretch:normal;font-size:72.3553px;font-family:Rockwell;writing-mode:lr-tb;fill:#000;fill-opacity:1;fill-rule:nonzero;stroke:none">3</tspan></text><path d="M0 0q-5.034 3.834-13.479 3.833-7.984 0-12.859-4.045-4.876-4.045-5.441-11.288l11.2-.954q0 7.102 6.359 7.102 2.826 0 4.681-1.555t1.855-4.027q0-3.11-2.755-4.77-2.757-1.66-7.667-1.731v-9.716q2.296.177 2.967.177 4.24 0 6.554-2.067 2.313-2.066 2.314-5.388 0-3.215-2.19-5.405t-5.688-2.19q-7.597 0-7.667 9.327l-11.588-.954q1.378-17.418 20.491-17.418 5.723 0 10.281 2.014 4.557 2.014 7.119 5.706t2.562 8.461q0 9.257-10.034 12.683 8.019 3.745 8.019 11.766Q5.034-3.834 0 0Z" style="fill:none;stroke:#000;stroke-width:2.713;stroke-linecap:butt;stroke-linejoin:miter;stroke-miterlimit:10;stroke-dasharray:none;stroke-opacity:1" transform="matrix(1.3333 0 0 -1.3333 10179 41.503)"/></g><text xml:space="preserve" transform="translate(26 104.65)scale(1.3333)"><tspan x="0" y="0" style="font-variant:normal;font-weight:700;font-stretch:normal;font-size:72.3553px;font-family:Rockwell;writing-mode:lr-tb;fill:#fff;fill-opacity:1;fill-rule:nonzero;stroke:none">3</tspan></text><path d="M0 0q-5.034 3.834-13.479 3.833-7.984 0-12.859-4.045-4.876-4.045-5.441-11.288l11.2-.954q0 7.102 6.359 7.102 2.826 0 4.681-1.555t1.855-4.027q0-3.11-2.755-4.77-2.757-1.66-7.667-1.731v-9.716q2.296.177 2.967.177 4.24 0 6.554-2.067 2.313-2.066 2.314-5.388 0-3.215-2.19-5.405t-5.688-2.19q-7.597 0-7.667 9.327l-11.588-.954q1.378-17.418 20.491-17.418 5.723 0 10.281 2.014 4.557 2.014 7.119 5.706t2.562 8.461q0 9.257-10.034 12.683 8.019 3.745 8.019 11.766Q5.034-3.834 0 0Z" style="fill:none;stroke:#231f20;stroke-width:2.713;stroke-linecap:butt;stroke-linejoin:miter;stroke-miterlimit:10;stroke-dasharray:none;stroke-opacity:1" transform="matrix(1.3333 0 0 -1.3333 74 37.503)"/><g clip-path="url(#f)" transform="translate(-10112)"><text xml:space="preserve" clip-path="url(#g)" transform="translate(10374 368.65)scale(-1.3333)"><tspan x="0" y="0" style="font-variant:normal;font-weight:700;font-stretch:normal;font-size:72.3553px;font-family:Rockwell;writing-mode:lr-tb;fill:#000;fill-opacity:1;fill-rule:nonzero;stroke:none">3</tspan></text><path d="M0 0q5.034-3.833 13.479-3.833 7.984 0 12.859 4.045 4.876 4.045 5.441 11.288l-11.2.954q0-7.102-6.359-7.102-2.826 0-4.681 1.555t-1.855 4.027q0 3.11 2.755 4.77 2.757 1.66 7.667 1.731v9.716q-2.296-.177-2.967-.177-4.24 0-6.554 2.067-2.313 2.066-2.314 5.388 0 3.215 2.19 5.405t5.688 2.19q7.597 0 7.667-9.327l11.588.954q-1.378 17.418-20.491 17.418-5.723 0-10.281-2.014-4.557-2.014-7.119-5.706t-2.562-8.461q0-9.257 10.034-12.683-8.019-3.745-8.019-11.766Q-5.034 3.834 0 0Z" style="fill:none;stroke:#000;stroke-width:2.713;stroke-linecap:butt;stroke-linejoin:miter;stroke-miterlimit:10;stroke-dasharray:none;stroke-opacity:1" transform="matrix(1.3333 0 0 -1.3333 10326 435.8)"/></g><text xml:space="preserve" transform="translate(268 364.65)scale(-1.3333)"><tspan x="0" y="0" style="font-variant:normal;font-weight:700;font-stretch:normal;font-size:72.3553px;font-family:Rockwell;writing-mode:lr-tb;fill:#fff;fill-opacity:1;fill-rule:nonzero;stroke:none">3</tspan></text><path d="M0 0q5.034-3.833 13.479-3.833 7.984 0 12.859 4.045 4.876 4.045 5.441 11.288l-11.2.954q0-7.102-6.359-7.102-2.826 0-4.681 1.555t-1.855 4.027q0 3.11 2.755 4.77 2.757 1.66 7.667 1.731v9.716q-2.296-.177-2.967-.177-4.24 0-6.554 2.067-2.313 2.066-2.314 5.388 0 3.215 2.19 5.405t5.688 2.19q7.597 0 7.667-9.327l11.588.954q-1.378 17.418-20.491 17.418-5.723 0-10.281-2.014-4.557-2.014-7.119-5.706t-2.562-8.461q0-9.257 10.034-12.683-8.019-3.745-8.019-11.766Q-5.034 3.834 0 0Z" style="fill:none;stroke:#231f20;stroke-width:2.713;stroke-linecap:butt;stroke-linejoin:miter;stroke-miterlimit:10;stroke-dasharray:none;stroke-opacity:1" transform="matrix(1.3333 0 0 -1.3333 221 431.8)"/><path d="M0 0c46.209 70.703 52.909 148.12 14.964 172.92S-91.2 160.51-137.41 89.805c-46.21-70.702-52.91-148.122-14.96-172.921C-114.43-107.92-46.209-70.703 0 0Z" style="fill:none;stroke:#fff;stroke-width:8.608;stroke-linecap:butt;stroke-linejoin:miter;stroke-miterlimit:10;stroke-dasharray:none;stroke-opacity:1" transform="matrix(1.3333 0 0 -1.3333 241 294.96)"/></svg>