<svg xmlns="http://www.w3.org/2000/svg" width="296" height="466.67" viewBox="0 0 296 466.67"><defs><clipPath id="a" clipPathUnits="userSpaceOnUse"><path d="M-198.32.142H23.682V-349.86H-198.32Z"/></clipPath><clipPath id="c" clipPathUnits="userSpaceOnUse"><path d="M-3-141.87h106.94V43.781H-3Z"/></clipPath><clipPath id="b" clipPathUnits="userSpaceOnUse"><path d="M11376 0h296v466.67h-296z"/></clipPath><clipPath id="e" clipPathUnits="userSpaceOnUse"><path d="M-1.356-64.155h48.36v83.953h-48.36Z"/></clipPath><clipPath id="d" clipPathUnits="userSpaceOnUse"><path d="M11376 0h296v466.67h-296z"/></clipPath><clipPath id="g" clipPathUnits="userSpaceOnUse"><path d="M47.002 19.799H-1.357v-83.954h48.359Z"/></clipPath><clipPath id="f" clipPathUnits="userSpaceOnUse"><path d="M11376 0h296v466.67h-296z"/></clipPath></defs><path d="M0 0c-10.45 0-18.951 8.501-18.951 18.951V318.76c0 10.45 8.501 18.96 18.951 18.96h172.1c10.45 0 18.95-8.51 18.95-18.96V18.951C191.05 8.501 182.55 0 172.1 0Z" style="fill:#293492;fill-opacity:1;fill-rule:nonzero;stroke:none" transform="matrix(1.3333 0 0 -1.3333 35 458.48)"/><path d="M0 0h-172.1c-13.76 0-24.95-11.193-24.95-24.951V-324.76c0-13.76 11.19-24.96 24.95-24.96H0c13.758 0 24.951 11.2 24.951 24.96v299.809C24.951-11.193 13.758 0 0 0m0-12c7.153 0 12.951-5.798 12.951-12.951V-324.76c0-7.16-5.798-12.96-12.951-12.96h-172.1c-7.15 0-12.95 5.8-12.95 12.96v299.809c0 7.153 5.8 12.951 12.95 12.951z" clip-path="url(#a)" style="fill:#fff;fill-opacity:1;fill-rule:nonzero;stroke:none" transform="matrix(1.3333 0 0 -1.3333 264 .19)"/><g clip-path="url(#b)" transform="translate(-11376)"><text xml:space="preserve" clip-path="url(#c)" transform="translate(11449 319.7)scale(1.3333)"><tspan x="0" y="0" style="font-variant:normal;font-weight:700;font-stretch:normal;font-size:160px;font-family:Rockwell;writing-mode:lr-tb;fill:#000;fill-opacity:1;fill-rule:nonzero;stroke:none">7</tspan></text><path d="M0 0q4.57 15.937 12.344 30.156 7.771 14.219 16.836 22.891v15.156h-88.282V32.266h21.563v16.25h38.75Q-13.165 32.89-22.617 11.914q-9.454-20.976-12.031-41.289H-50.82v-20.156h62.89v20.156H-4.883Q-4.571-15.938 0 0Z" style="fill:none;stroke:#000;stroke-width:6;stroke-linecap:butt;stroke-linejoin:miter;stroke-miterlimit:10;stroke-dasharray:none;stroke-opacity:1" transform="matrix(1.3333 0 0 -1.3333 11536 253.66)"/></g><text xml:space="preserve" transform="translate(80 315.7)scale(1.3333)"><tspan x="0" y="0" style="font-variant:normal;font-weight:700;font-stretch:normal;font-size:160px;font-family:Rockwell;writing-mode:lr-tb;fill:#fff;fill-opacity:1;fill-rule:nonzero;stroke:none">7</tspan></text><path d="M0 0q4.57 15.937 12.344 30.156 7.771 14.219 16.836 22.891v15.156h-88.282V32.266h21.563v16.25h38.75Q-13.165 32.89-22.617 11.914q-9.454-20.976-12.031-41.289H-50.82v-20.156h62.89v20.156H-4.883Q-4.571-15.938 0 0Z" style="fill:none;stroke:#231f20;stroke-width:6;stroke-linecap:butt;stroke-linejoin:miter;stroke-miterlimit:10;stroke-dasharray:none;stroke-opacity:1" transform="matrix(1.3333 0 0 -1.3333 167 249.66)"/><g clip-path="url(#d)" transform="translate(-11376)"><text xml:space="preserve" clip-path="url(#e)" transform="translate(11398 107.77)scale(1.3333)"><tspan x="0" y="0" style="font-variant:normal;font-weight:700;font-stretch:normal;font-size:72.3553px;font-family:Rockwell;writing-mode:lr-tb;fill:#000;fill-opacity:1;fill-rule:nonzero;stroke:none">7</tspan></text><path d="M0 0a66.6 66.6 0 0 0 5.582 13.637q3.515 6.43 7.614 10.352v6.854h-39.923V14.591h9.751v7.349H.548q-6.501-7.066-10.776-16.552t-5.441-18.672h-7.312v-9.115h28.44v9.115h-7.667Q-2.067-7.208 0 0Z" style="fill:none;stroke:#000;stroke-width:2.713;stroke-linecap:butt;stroke-linejoin:miter;stroke-miterlimit:10;stroke-dasharray:none;stroke-opacity:1" transform="matrix(1.3333 0 0 -1.3333 11437 77.907)"/></g><text xml:space="preserve" transform="translate(29 103.77)scale(1.3333)"><tspan x="0" y="0" style="font-variant:normal;font-weight:700;font-stretch:normal;font-size:72.3553px;font-family:Rockwell;writing-mode:lr-tb;fill:#fff;fill-opacity:1;fill-rule:nonzero;stroke:none">7</tspan></text><path d="M0 0a66.6 66.6 0 0 0 5.582 13.637q3.515 6.43 7.614 10.352v6.854h-39.923V14.591h9.751v7.349H.548q-6.501-7.066-10.776-16.552t-5.441-18.672h-7.312v-9.115h28.44v9.115h-7.667Q-2.067-7.208 0 0Z" style="fill:none;stroke:#231f20;stroke-width:2.713;stroke-linecap:butt;stroke-linejoin:miter;stroke-miterlimit:10;stroke-dasharray:none;stroke-opacity:1" transform="matrix(1.3333 0 0 -1.3333 68 73.907)"/><g clip-path="url(#f)" transform="translate(-11376)"><text xml:space="preserve" clip-path="url(#g)" transform="translate(11640 367.77)scale(-1.3333)"><tspan x="0" y="0" style="font-variant:normal;font-weight:700;font-stretch:normal;font-size:72.3553px;font-family:Rockwell;writing-mode:lr-tb;fill:#000;fill-opacity:1;fill-rule:nonzero;stroke:none">7</tspan></text><path d="M0 0a66.6 66.6 0 0 0-5.582-13.637q-3.515-6.43-7.614-10.352v-6.854h39.923v16.252h-9.751v-7.349H-.548q6.501 7.066 10.776 16.552t5.441 18.672h7.312v9.115h-28.44v-9.115h7.667Q2.067 7.208 0 0Z" style="fill:none;stroke:#000;stroke-width:2.713;stroke-linecap:butt;stroke-linejoin:miter;stroke-miterlimit:10;stroke-dasharray:none;stroke-opacity:1" transform="matrix(1.3333 0 0 -1.3333 11600 397.64)"/></g><text xml:space="preserve" transform="translate(270 363.77)scale(-1.3333)"><tspan x="0" y="0" style="font-variant:normal;font-weight:700;font-stretch:normal;font-size:72.3553px;font-family:Rockwell;writing-mode:lr-tb;fill:#fff;fill-opacity:1;fill-rule:nonzero;stroke:none">7</tspan></text><path d="M0 0a66.6 66.6 0 0 0-5.582-13.637q-3.515-6.43-7.614-10.352v-6.854h39.923v16.252h-9.751v-7.349H-.548q6.501 7.066 10.776 16.552t5.441 18.672h7.312v9.115h-28.44v-9.115h7.667Q2.067 7.208 0 0Z" style="fill:none;stroke:#231f20;stroke-width:2.713;stroke-linecap:butt;stroke-linejoin:miter;stroke-miterlimit:10;stroke-dasharray:none;stroke-opacity:1" transform="matrix(1.3333 0 0 -1.3333 231 393.64)"/><path d="M0 0c46.209 70.703 52.909 148.12 14.964 172.92S-91.2 160.51-137.41 89.805c-46.21-70.702-52.91-148.122-14.96-172.921C-114.43-107.92-46.209-70.703 0 0Z" style="fill:none;stroke:#fff;stroke-width:8.608;stroke-linecap:butt;stroke-linejoin:miter;stroke-miterlimit:10;stroke-dasharray:none;stroke-opacity:1" transform="matrix(1.3333 0 0 -1.3333 243 294.08)"/></svg>