<svg xmlns="http://www.w3.org/2000/svg" width="296" height="466.67" viewBox="0 0 296 466.67"><defs><clipPath id="b" clipPathUnits="userSpaceOnUse"><path d="M-3-141.87h106.78V43.781H-3Z"/></clipPath><clipPath id="a" clipPathUnits="userSpaceOnUse"><path d="M16432 0h296v466.67h-296z"/></clipPath><clipPath id="d" clipPathUnits="userSpaceOnUse"><path d="M-1.356-64.155h48.288v83.953H-1.356Z"/></clipPath><clipPath id="c" clipPathUnits="userSpaceOnUse"><path d="M16432 0h296v466.67h-296z"/></clipPath><clipPath id="f" clipPathUnits="userSpaceOnUse"><path d="M46.932 19.799H-1.356v-83.954h48.288Z"/></clipPath><clipPath id="e" clipPathUnits="userSpaceOnUse"><path d="M16432 0h296v466.67h-296z"/></clipPath></defs><path d="M0 0c-10.45 0-18.951 8.501-18.951 18.951V318.76c0 10.45 8.501 18.96 18.951 18.96h172.1c10.45 0 18.95-8.51 18.95-18.96V18.951C191.05 8.501 182.55 0 172.1 0Z" style="fill:#13aa4a;fill-opacity:1;fill-rule:nonzero;stroke:none" transform="matrix(1.3333 0 0 -1.3333 33 458.48)"/><path d="M0 0h-172.1c-13.76 0-24.95-11.193-24.95-24.951V-324.76c0-13.76 11.19-24.96 24.95-24.96H0c13.758 0 24.951 11.2 24.951 24.96v299.809C24.951-11.193 13.758 0 0 0m0-12c7.153 0 12.951-5.798 12.951-12.951V-324.76c0-7.16-5.798-12.96-12.951-12.96h-172.1c-7.15 0-12.95 5.8-12.95 12.96v299.809c0 7.153 5.8 12.951 12.95 12.951z" style="fill:#fff;fill-opacity:1;fill-rule:nonzero;stroke:none" transform="matrix(1.3333 0 0 -1.3333 263 .19)"/><g clip-path="url(#a)" transform="translate(-16432)"><text xml:space="preserve" clip-path="url(#b)" transform="translate(16503 319.7)scale(1.3333)"><tspan x="0" y="0" style="font-variant:normal;font-weight:700;font-stretch:normal;font-size:160px;font-family:Rockwell;writing-mode:lr-tb;fill:#000;fill-opacity:1;fill-rule:nonzero;stroke:none">2</tspan></text><path d="M0 0q-10.977 8.789-30.117 8.789-21.33 0-32.031-10.703-10.705-10.704-11.172-32.5l24.453-.938q.78 12.968 4.804 18.711 4.023 5.742 12.305 5.743 6.405 0 9.844-3.047 3.437-3.048 3.437-8.985 0-6.017-4.335-11.718-4.337-5.704-12.618-11.797-15.702-11.642-23.789-20.118-8.085-8.477-11.836-18.632-3.75-10.158-3.75-25.865h85.782l1.406 35.396h-23.828v-15.234h-35.547q2.265 12.656 23.359 25.625 12.968 7.81 19.766 13.242 6.796 5.429 10.82 12.07 4.024 6.64 4.024 15.625Q10.977-8.789 0 0Z" style="fill:none;stroke:#000;stroke-width:6;stroke-linecap:butt;stroke-linejoin:miter;stroke-miterlimit:10;stroke-dasharray:none;stroke-opacity:1" transform="matrix(1.3333 0 0 -1.3333 16612 171.63)"/></g><text xml:space="preserve" transform="translate(78 315.7)scale(1.3333)"><tspan x="0" y="0" style="font-variant:normal;font-weight:700;font-stretch:normal;font-size:160px;font-family:Rockwell;writing-mode:lr-tb;fill:#fff;fill-opacity:1;fill-rule:nonzero;stroke:none">2</tspan></text><path d="M0 0q-10.977 8.789-30.117 8.789-21.33 0-32.031-10.703-10.705-10.704-11.172-32.5l24.453-.938q.78 12.968 4.804 18.711 4.023 5.742 12.305 5.743 6.405 0 9.844-3.047 3.437-3.048 3.437-8.985 0-6.017-4.335-11.718-4.337-5.704-12.618-11.797-15.702-11.642-23.789-20.118-8.085-8.477-11.836-18.632-3.75-10.158-3.75-25.865h85.782l1.406 35.396h-23.828v-15.234h-35.547q2.265 12.656 23.359 25.625 12.968 7.81 19.766 13.242 6.796 5.429 10.82 12.07 4.024 6.64 4.024 15.625Q10.977-8.789 0 0Z" style="fill:none;stroke:#231f20;stroke-width:6;stroke-linecap:butt;stroke-linejoin:miter;stroke-miterlimit:10;stroke-dasharray:none;stroke-opacity:1" transform="matrix(1.3333 0 0 -1.3333 187 167.63)"/><g clip-path="url(#c)" transform="translate(-16432)"><text xml:space="preserve" clip-path="url(#d)" transform="translate(16452 107.77)scale(1.3333)"><tspan x="0" y="0" style="font-variant:normal;font-weight:700;font-stretch:normal;font-size:72.3553px;font-family:Rockwell;writing-mode:lr-tb;fill:#000;fill-opacity:1;fill-rule:nonzero;stroke:none">2</tspan></text><path d="M0 0q-4.965 3.975-13.619 3.975-9.646 0-14.485-4.841-4.842-4.84-5.053-14.697l11.058-.424q.353 5.865 2.173 8.462t5.565 2.597q2.896 0 4.451-1.378 1.555-1.379 1.555-4.063 0-2.721-1.961-5.3-1.96-2.58-5.705-5.334-7.102-5.264-10.759-9.098-3.657-3.833-5.352-8.426t-1.696-11.694H4.964L5.6-34.217H-5.176v-6.889h-16.075q1.024 5.723 10.563 11.588 5.866 3.532 8.939 5.988t4.894 5.459q1.819 3.003 1.819 7.066Q4.964-3.975 0 0Z" style="fill:none;stroke:#000;stroke-width:2.713;stroke-linecap:butt;stroke-linejoin:miter;stroke-miterlimit:10;stroke-dasharray:none;stroke-opacity:1" transform="matrix(1.3333 0 0 -1.3333 16501 40.811)"/></g><text xml:space="preserve" transform="translate(27 103.77)scale(1.3333)"><tspan x="0" y="0" style="font-variant:normal;font-weight:700;font-stretch:normal;font-size:72.3553px;font-family:Rockwell;writing-mode:lr-tb;fill:#fff;fill-opacity:1;fill-rule:nonzero;stroke:none">2</tspan></text><path d="M0 0q-4.965 3.975-13.619 3.975-9.646 0-14.485-4.841-4.842-4.84-5.053-14.697l11.058-.424q.353 5.865 2.173 8.462t5.565 2.597q2.896 0 4.451-1.378 1.555-1.379 1.555-4.063 0-2.721-1.961-5.3-1.96-2.58-5.705-5.334-7.102-5.264-10.759-9.098-3.657-3.833-5.352-8.426t-1.696-11.694H4.964L5.6-34.217H-5.176v-6.889h-16.075q1.024 5.723 10.563 11.588 5.866 3.532 8.939 5.988t4.894 5.459q1.819 3.003 1.819 7.066Q4.964-3.975 0 0Z" style="fill:none;stroke:#231f20;stroke-width:2.713;stroke-linecap:butt;stroke-linejoin:miter;stroke-miterlimit:10;stroke-dasharray:none;stroke-opacity:1" transform="matrix(1.3333 0 0 -1.3333 76 36.811)"/><g clip-path="url(#e)" transform="translate(-16432)"><text xml:space="preserve" clip-path="url(#f)" transform="translate(16694 367.78)scale(-1.3333)"><tspan x="0" y="0" style="font-variant:normal;font-weight:700;font-stretch:normal;font-size:72.3553px;font-family:Rockwell;writing-mode:lr-tb;fill:#000;fill-opacity:1;fill-rule:nonzero;stroke:none">2</tspan></text><path d="M0 0q4.965-3.975 13.619-3.975 9.646 0 14.485 4.841 4.842 4.84 5.053 14.697l-11.058.424q-.353-5.865-2.173-8.462t-5.565-2.597q-2.896 0-4.451 1.378-1.555 1.379-1.555 4.063 0 2.721 1.961 5.3 1.96 2.58 5.705 5.334 7.102 5.264 10.759 9.098 3.657 3.833 5.352 8.426t1.696 11.694H-4.964L-5.6 34.217H5.176v6.889h16.075q-1.024-5.723-10.563-11.588-5.866-3.532-8.939-5.988t-4.894-5.459q-1.819-3.003-1.819-7.066Q-4.964 3.975 0 0Z" style="fill:none;stroke:#000;stroke-width:2.713;stroke-linecap:butt;stroke-linejoin:miter;stroke-miterlimit:10;stroke-dasharray:none;stroke-opacity:1" transform="matrix(1.3333 0 0 -1.3333 16645 434.74)"/></g><text xml:space="preserve" transform="translate(269 363.78)scale(-1.3333)"><tspan x="0" y="0" style="font-variant:normal;font-weight:700;font-stretch:normal;font-size:72.3553px;font-family:Rockwell;writing-mode:lr-tb;fill:#fff;fill-opacity:1;fill-rule:nonzero;stroke:none">2</tspan></text><path d="M0 0q4.965-3.975 13.619-3.975 9.646 0 14.485 4.841 4.842 4.84 5.053 14.697l-11.058.424q-.353-5.865-2.173-8.462t-5.565-2.597q-2.896 0-4.451 1.378-1.555 1.379-1.555 4.063 0 2.721 1.961 5.3 1.96 2.58 5.705 5.334 7.102 5.264 10.759 9.098 3.657 3.833 5.352 8.426t1.696 11.694H-4.964L-5.6 34.217H5.176v6.889h16.075q-1.024-5.723-10.563-11.588-5.866-3.532-8.939-5.988t-4.894-5.459q-1.819-3.003-1.819-7.066Q-4.964 3.975 0 0Z" style="fill:none;stroke:#231f20;stroke-width:2.713;stroke-linecap:butt;stroke-linejoin:miter;stroke-miterlimit:10;stroke-dasharray:none;stroke-opacity:1" transform="matrix(1.3333 0 0 -1.3333 219 430.74)"/><path d="M0 0c46.209 70.703 52.909 148.12 14.964 172.92S-91.2 160.51-137.41 89.805c-46.21-70.702-52.91-148.122-14.96-172.921C-114.43-107.92-46.209-70.703 0 0Z" style="fill:none;stroke:#fff;stroke-width:8.608;stroke-linecap:butt;stroke-linejoin:miter;stroke-miterlimit:10;stroke-dasharray:none;stroke-opacity:1" transform="matrix(1.3333 0 0 -1.3333 241 294.08)"/></svg>