<svg xmlns="http://www.w3.org/2000/svg" width="296" height="466.67" viewBox="0 0 296 466.67"><defs><clipPath id="a" clipPathUnits="userSpaceOnUse"><path d="M-197.19.142H24.813V-349.86H-197.19Z"/></clipPath><clipPath id="c" clipPathUnits="userSpaceOnUse"><path d="M-3-141.87h106.78V43.781H-3Z"/></clipPath><clipPath id="b" clipPathUnits="userSpaceOnUse"><path d="M17064 0h296v466.67h-296z"/></clipPath><clipPath id="e" clipPathUnits="userSpaceOnUse"><path d="M-1.357-64.155h48.289v83.953H-1.357Z"/></clipPath><clipPath id="d" clipPathUnits="userSpaceOnUse"><path d="M17064 0h296v466.67h-296z"/></clipPath><clipPath id="g" clipPathUnits="userSpaceOnUse"><path d="M46.932 19.799H-1.356v-83.954h48.288z"/></clipPath><clipPath id="f" clipPathUnits="userSpaceOnUse"><path d="M17064 0h296v466.67h-296z"/></clipPath></defs><path d="M0 0c-10.45 0-18.951 8.501-18.951 18.951V318.76c0 10.45 8.501 18.96 18.951 18.96h172.1c10.45 0 18.95-8.51 18.95-18.96V18.951C191.05 8.501 182.55 0 172.1 0Z" style="fill:#13aa4a;fill-opacity:1;fill-rule:nonzero;stroke:none" transform="matrix(1.3333 0 0 -1.3333 33 458.48)"/><path d="M0 0h-172.1c-13.76 0-24.95-11.193-24.95-24.951V-324.76c0-13.76 11.19-24.96 24.95-24.96H0c13.758 0 24.951 11.2 24.951 24.96v299.809C24.951-11.193 13.758 0 0 0m0-12c7.153 0 12.951-5.798 12.951-12.951V-324.76c0-7.16-5.798-12.96-12.951-12.96h-172.1c-7.15 0-12.95 5.8-12.95 12.96v299.809c0 7.153 5.8 12.951 12.95 12.951z" clip-path="url(#a)" style="fill:#fff;fill-opacity:1;fill-rule:nonzero;stroke:none" transform="matrix(1.3333 0 0 -1.3333 263 .19)"/><g clip-path="url(#b)" transform="translate(-17064)"><text xml:space="preserve" clip-path="url(#c)" transform="translate(17135 319.7)scale(1.3333)"><tspan x="0" y="0" style="font-variant:normal;font-weight:700;font-stretch:normal;font-size:160px;font-family:Rockwell;writing-mode:lr-tb;fill:#000;fill-opacity:1;fill-rule:nonzero;stroke:none">0</tspan></text><path d="M0 0q-11.094 15.43-32.891 15.43-21.563-.001-32.773-15.782-11.212-15.781-11.211-44.843 0-29.766 11.289-45.274 11.288-15.511 32.695-15.511 21.328 0 32.657 15.511 11.327 15.508 11.328 45.274Q11.094-15.43 0 0Zm-43.75-14.961q3.516 10.078 11.016 10.078 14.374 0 14.375-40.312 0-20.469-3.438-30.313-3.437-9.844-10.937-9.844t-11.016 9.844-3.516 30.313q0 20.155 3.516 30.234z" style="fill:none;stroke:#000;stroke-width:6;stroke-linecap:butt;stroke-linejoin:miter;stroke-miterlimit:10;stroke-dasharray:none;stroke-opacity:1" transform="matrix(1.3333 0 0 -1.3333 17246 180.48)"/></g><text xml:space="preserve" transform="translate(78 315.7)scale(1.3333)"><tspan x="0" y="0" style="font-variant:normal;font-weight:700;font-stretch:normal;font-size:160px;font-family:Rockwell;writing-mode:lr-tb;fill:#fff;fill-opacity:1;fill-rule:nonzero;stroke:none">0</tspan></text><path d="M0 0q-11.094 15.43-32.891 15.43-21.563-.001-32.773-15.782-11.212-15.781-11.211-44.843 0-29.766 11.289-45.274 11.288-15.511 32.695-15.511 21.328 0 32.657 15.511 11.327 15.508 11.328 45.274Q11.094-15.43 0 0Zm-43.75-14.961q3.516 10.078 11.016 10.078 14.374 0 14.375-40.312 0-20.469-3.438-30.313-3.437-9.844-10.937-9.844t-11.016 9.844-3.516 30.313q0 20.155 3.516 30.234z" style="fill:none;stroke:#231f20;stroke-width:6;stroke-linecap:butt;stroke-linejoin:miter;stroke-miterlimit:10;stroke-dasharray:none;stroke-opacity:1" transform="matrix(1.3333 0 0 -1.3333 189 176.48)"/><g clip-path="url(#d)" transform="translate(-17064)"><text xml:space="preserve" clip-path="url(#e)" transform="translate(17084 107.77)scale(1.3333)"><tspan x="0" y="0" style="font-variant:normal;font-weight:700;font-stretch:normal;font-size:72.3553px;font-family:Rockwell;writing-mode:lr-tb;fill:#000;fill-opacity:1;fill-rule:nonzero;stroke:none">0</tspan></text><path d="M0 0q-5.017 6.977-14.873 6.978-9.751 0-14.821-7.137t-5.07-20.279q0-13.461 5.105-20.474t14.786-7.013q9.645 0 14.768 7.013t5.123 20.474Q5.018-6.978 0 0Zm-19.784-6.766q1.59 4.557 4.981 4.558 6.5 0 6.501-18.23 0-9.257-1.554-13.708-1.556-4.452-4.947-4.452t-4.981 4.452-1.59 13.708q0 9.115 1.59 13.672z" style="fill:none;stroke:#000;stroke-width:2.713;stroke-linecap:butt;stroke-linejoin:miter;stroke-miterlimit:10;stroke-dasharray:none;stroke-opacity:1" transform="matrix(1.3333 0 0 -1.3333 17135 44.814)"/></g><text xml:space="preserve" transform="translate(27 103.77)scale(1.3333)"><tspan x="0" y="0" style="font-variant:normal;font-weight:700;font-stretch:normal;font-size:72.3553px;font-family:Rockwell;writing-mode:lr-tb;fill:#fff;fill-opacity:1;fill-rule:nonzero;stroke:none">0</tspan></text><path d="M0 0q-5.017 6.977-14.873 6.978-9.751 0-14.821-7.137t-5.07-20.279q0-13.461 5.105-20.474t14.786-7.013q9.645 0 14.768 7.013t5.123 20.474Q5.018-6.978 0 0Zm-19.784-6.766q1.59 4.557 4.981 4.558 6.5 0 6.501-18.23 0-9.257-1.554-13.708-1.556-4.452-4.947-4.452t-4.981 4.452-1.59 13.708q0 9.115 1.59 13.672z" style="fill:none;stroke:#231f20;stroke-width:2.713;stroke-linecap:butt;stroke-linejoin:miter;stroke-miterlimit:10;stroke-dasharray:none;stroke-opacity:1" transform="matrix(1.3333 0 0 -1.3333 77 40.814)"/><g clip-path="url(#f)" transform="translate(-17064)"><text xml:space="preserve" clip-path="url(#g)" transform="translate(17326 367.77)scale(-1.3333)"><tspan x="0" y="0" style="font-variant:normal;font-weight:700;font-stretch:normal;font-size:72.3553px;font-family:Rockwell;writing-mode:lr-tb;fill:#000;fill-opacity:1;fill-rule:nonzero;stroke:none">0</tspan></text><path d="M0 0q5.017-6.977 14.873-6.978 9.751 0 14.821 7.137t5.07 20.279q0 13.461-5.105 20.474t-14.786 7.013q-9.644 0-14.768-7.013-5.123-7.013-5.123-20.474T0 0Zm19.784 6.766q-1.59-4.557-4.981-4.558-6.5 0-6.501 18.23 0 9.257 1.554 13.708 1.556 4.452 4.947 4.452t4.981-4.452 1.59-13.708q0-9.114-1.59-13.672z" style="fill:none;stroke:#000;stroke-width:2.713;stroke-linecap:butt;stroke-linejoin:miter;stroke-miterlimit:10;stroke-dasharray:none;stroke-opacity:1" transform="matrix(1.3333 0 0 -1.3333 17276 430.73)"/></g><text xml:space="preserve" transform="translate(269 363.77)scale(-1.3333)"><tspan x="0" y="0" style="font-variant:normal;font-weight:700;font-stretch:normal;font-size:72.3553px;font-family:Rockwell;writing-mode:lr-tb;fill:#fff;fill-opacity:1;fill-rule:nonzero;stroke:none">0</tspan></text><path d="M0 0q5.017-6.977 14.873-6.978 9.751 0 14.821 7.137t5.07 20.279q0 13.461-5.105 20.474t-14.786 7.013q-9.644 0-14.768-7.013-5.123-7.013-5.123-20.474T0 0Zm19.784 6.766q-1.59-4.557-4.981-4.558-6.5 0-6.501 18.23 0 9.257 1.554 13.708 1.556 4.452 4.947 4.452t4.981-4.452 1.59-13.708q0-9.114-1.59-13.672z" style="fill:none;stroke:#231f20;stroke-width:2.713;stroke-linecap:butt;stroke-linejoin:miter;stroke-miterlimit:10;stroke-dasharray:none;stroke-opacity:1" transform="matrix(1.3333 0 0 -1.3333 219 426.73)"/><path d="M0 0c46.209 70.703 52.909 148.12 14.964 172.92S-91.2 160.51-137.41 89.805c-46.21-70.702-52.91-148.122-14.96-172.921C-114.43-107.92-46.209-70.703 0 0Z" style="fill:none;stroke:#fff;stroke-width:8.608;stroke-linecap:butt;stroke-linejoin:miter;stroke-miterlimit:10;stroke-dasharray:none;stroke-opacity:1" transform="matrix(1.3333 0 0 -1.3333 241 294.08)"/></svg>