<svg xmlns="http://www.w3.org/2000/svg" width="296" height="466.67" viewBox="0 0 296 466.67"><defs><clipPath id="a" clipPathUnits="userSpaceOnUse"><path d="M-197.19.142H24.813V-349.86H-197.19Z"/></clipPath><clipPath id="c" clipPathUnits="userSpaceOnUse"><path d="M-3-141.87h106.78V43.781H-3Z"/></clipPath><clipPath id="b" clipPathUnits="userSpaceOnUse"><path d="M15484 0h296v466.67h-296z"/></clipPath><clipPath id="e" clipPathUnits="userSpaceOnUse"><path d="M-1.357-64.155h48.289v83.953H-1.357Z"/></clipPath><clipPath id="d" clipPathUnits="userSpaceOnUse"><path d="M15484 0h296v466.67h-296z"/></clipPath><clipPath id="g" clipPathUnits="userSpaceOnUse"><path d="M46.932 19.799H-1.356v-83.954h48.288Z"/></clipPath><clipPath id="f" clipPathUnits="userSpaceOnUse"><path d="M15484 0h296v466.67h-296z"/></clipPath></defs><path d="M0 0c-10.45 0-18.951 8.501-18.951 18.951V318.76c0 10.45 8.501 18.96 18.951 18.96h172.1c10.45 0 18.95-8.51 18.95-18.96V18.951C191.05 8.501 182.55 0 172.1 0Z" style="fill:#13aa4a;fill-opacity:1;fill-rule:nonzero;stroke:none" transform="matrix(1.3333 0 0 -1.3333 33 458.48)"/><path d="M0 0h-172.1c-13.76 0-24.95-11.193-24.95-24.951V-324.76c0-13.76 11.19-24.96 24.95-24.96H0c13.758 0 24.951 11.2 24.951 24.96v299.809C24.951-11.193 13.758 0 0 0m0-12c7.153 0 12.951-5.798 12.951-12.951V-324.76c0-7.16-5.798-12.96-12.951-12.96h-172.1c-7.15 0-12.95 5.8-12.95 12.96v299.809c0 7.153 5.8 12.951 12.95 12.951z" clip-path="url(#a)" style="fill:#fff;fill-opacity:1;fill-rule:nonzero;stroke:none" transform="matrix(1.3333 0 0 -1.3333 263 .19)"/><g clip-path="url(#b)" transform="translate(-15484)"><text xml:space="preserve" clip-path="url(#c)" transform="translate(15555 319.7)scale(1.3333)"><tspan x="0" y="0" style="font-variant:normal;font-weight:700;font-stretch:normal;font-size:160px;font-family:Rockwell;writing-mode:lr-tb;fill:#000;fill-opacity:1;fill-rule:nonzero;stroke:none">5</tspan></text><path d="M0 0v28.75h-74.453l-4.141-59.844 20.781-10.234q6.875 9.452 16.954 9.453 17.109 0 17.109-19.844 0-8.984-4.531-13.828-4.532-4.844-13.203-4.844-14.533 0-17.266 17.11l-25.156-3.047q2.265-16.172 13.945-25.195t30.273-9.024q13.75 0 24.063 4.922T.273-71.328t5.586 21.562q0 10.547-5.195 19.493t-14.687 13.984q-9.493 5.039-21.993 5.039-10.86 0-20.625-5.078l2.344 24.922h32.188L-20 0Z" style="fill:none;stroke:#000;stroke-width:6;stroke-linecap:butt;stroke-linejoin:miter;stroke-miterlimit:10;stroke-dasharray:none;stroke-opacity:1" transform="matrix(1.3333 0 0 -1.3333 15674 201.05)"/></g><text xml:space="preserve" transform="translate(78 315.7)scale(1.3333)"><tspan x="0" y="0" style="font-variant:normal;font-weight:700;font-stretch:normal;font-size:160px;font-family:Rockwell;writing-mode:lr-tb;fill:#fff;fill-opacity:1;fill-rule:nonzero;stroke:none">5</tspan></text><path d="M0 0v28.75h-74.453l-4.141-59.844 20.781-10.234q6.875 9.452 16.954 9.453 17.109 0 17.109-19.844 0-8.984-4.531-13.828-4.532-4.844-13.203-4.844-14.533 0-17.266 17.11l-25.156-3.047q2.265-16.172 13.945-25.195t30.273-9.024q13.75 0 24.063 4.922T.273-71.328t5.586 21.562q0 10.547-5.195 19.493t-14.687 13.984q-9.493 5.039-21.993 5.039-10.86 0-20.625-5.078l2.344 24.922h32.188L-20 0Z" style="fill:none;stroke:#231f20;stroke-width:6;stroke-linecap:butt;stroke-linejoin:miter;stroke-miterlimit:10;stroke-dasharray:none;stroke-opacity:1" transform="matrix(1.3333 0 0 -1.3333 196 197.05)"/><g clip-path="url(#d)" transform="translate(-15484)"><text xml:space="preserve" clip-path="url(#e)" transform="translate(15504 107.77)scale(1.3333)"><tspan x="0" y="0" style="font-variant:normal;font-weight:700;font-stretch:normal;font-size:72.3553px;font-family:Rockwell;writing-mode:lr-tb;fill:#000;fill-opacity:1;fill-rule:nonzero;stroke:none">5</tspan></text><path d="M0 0v13.001h-33.67l-1.872-27.063 9.397-4.627q3.109 4.274 7.667 4.274 7.738 0 7.738-8.974 0-4.062-2.05-6.253t-5.971-2.19q-6.571 0-7.807 7.737l-11.376-1.378q1.024-7.313 6.306-11.394 5.281-4.08 13.69-4.08 6.217 0 10.882 2.225 4.663 2.226 7.189 6.466 2.526 4.239 2.526 9.751 0 4.768-2.349 8.815-2.35 4.044-6.642 6.324-4.294 2.279-9.945 2.279-4.912-.001-9.327-2.297l1.059 11.27h14.556L-9.045 0Z" style="fill:none;stroke:#000;stroke-width:2.713;stroke-linecap:butt;stroke-linejoin:miter;stroke-miterlimit:10;stroke-dasharray:none;stroke-opacity:1" transform="matrix(1.3333 0 0 -1.3333 15558 54.118)"/></g><text xml:space="preserve" transform="translate(27 103.77)scale(1.3333)"><tspan x="0" y="0" style="font-variant:normal;font-weight:700;font-stretch:normal;font-size:72.3553px;font-family:Rockwell;writing-mode:lr-tb;fill:#fff;fill-opacity:1;fill-rule:nonzero;stroke:none">5</tspan></text><path d="M0 0v13.001h-33.67l-1.872-27.063 9.397-4.627q3.109 4.274 7.667 4.274 7.738 0 7.738-8.974 0-4.062-2.05-6.253t-5.971-2.19q-6.571 0-7.807 7.737l-11.376-1.378q1.024-7.313 6.306-11.394 5.281-4.08 13.69-4.08 6.217 0 10.882 2.225 4.663 2.226 7.189 6.466 2.526 4.239 2.526 9.751 0 4.768-2.349 8.815-2.35 4.044-6.642 6.324-4.294 2.279-9.945 2.279-4.912-.001-9.327-2.297l1.059 11.27h14.556L-9.045 0Z" style="fill:none;stroke:#231f20;stroke-width:2.713;stroke-linecap:butt;stroke-linejoin:miter;stroke-miterlimit:10;stroke-dasharray:none;stroke-opacity:1" transform="matrix(1.3333 0 0 -1.3333 80 50.118)"/><g clip-path="url(#f)" transform="translate(-15484)"><text xml:space="preserve" clip-path="url(#g)" transform="translate(15746 367.77)scale(-1.3333)"><tspan x="0" y="0" style="font-variant:normal;font-weight:700;font-stretch:normal;font-size:72.3553px;font-family:Rockwell;writing-mode:lr-tb;fill:#000;fill-opacity:1;fill-rule:nonzero;stroke:none">5</tspan></text><path d="M0 0v-13.001h33.67l1.872 27.063-9.397 4.627q-3.109-4.274-7.667-4.274-7.738 0-7.738 8.974 0 4.063 2.05 6.253t5.971 2.19q6.571 0 7.807-7.737l11.376 1.378q-1.024 7.313-6.306 11.394-5.281 4.08-13.69 4.08-6.217 0-10.882-2.225-4.663-2.226-7.189-6.466-2.526-4.239-2.526-9.751 0-4.768 2.349-8.815 2.35-4.044 6.642-6.324 4.294-2.279 9.945-2.279 4.912.001 9.327 2.297l-1.059-11.27H9.999L9.045 0Z" style="fill:none;stroke:#000;stroke-width:2.713;stroke-linecap:butt;stroke-linejoin:miter;stroke-miterlimit:10;stroke-dasharray:none;stroke-opacity:1" transform="matrix(1.3333 0 0 -1.3333 15693 421.43)"/></g><text xml:space="preserve" transform="translate(269 363.77)scale(-1.3333)"><tspan x="0" y="0" style="font-variant:normal;font-weight:700;font-stretch:normal;font-size:72.3553px;font-family:Rockwell;writing-mode:lr-tb;fill:#fff;fill-opacity:1;fill-rule:nonzero;stroke:none">5</tspan></text><path d="M0 0v-13.001h33.67l1.872 27.063-9.397 4.627q-3.109-4.274-7.667-4.274-7.738 0-7.738 8.974 0 4.063 2.05 6.253t5.971 2.19q6.571 0 7.807-7.737l11.376 1.378q-1.024 7.313-6.306 11.394-5.281 4.08-13.69 4.08-6.217 0-10.882-2.225-4.663-2.226-7.189-6.466-2.526-4.239-2.526-9.751 0-4.768 2.349-8.815 2.35-4.044 6.642-6.324 4.294-2.279 9.945-2.279 4.912.001 9.327 2.297l-1.059-11.27H9.999L9.045 0Z" style="fill:none;stroke:#231f20;stroke-width:2.713;stroke-linecap:butt;stroke-linejoin:miter;stroke-miterlimit:10;stroke-dasharray:none;stroke-opacity:1" transform="matrix(1.3333 0 0 -1.3333 215 417.43)"/><path d="M0 0c46.209 70.703 52.909 148.12 14.964 172.92S-91.2 160.51-137.41 89.805c-46.21-70.702-52.91-148.122-14.96-172.921C-114.43-107.92-46.209-70.703 0 0Z" style="fill:none;stroke:#fff;stroke-width:8.608;stroke-linecap:butt;stroke-linejoin:miter;stroke-miterlimit:10;stroke-dasharray:none;stroke-opacity:1" transform="matrix(1.3333 0 0 -1.3333 241 294.08)"/></svg>