<svg xmlns="http://www.w3.org/2000/svg" width="296" height="466.67" viewBox="0 0 296 466.67"><defs><clipPath id="a" clipPathUnits="userSpaceOnUse"><path d="M-197.19.142H24.813V-349.86H-197.19Z"/></clipPath><clipPath id="b" clipPathUnits="userSpaceOnUse"><path d="M13588 0h296v466.67h-296z"/></clipPath></defs><path d="M0 0c-10.45 0-18.951 8.501-18.951 18.951V318.76c0 10.45 8.501 18.96 18.951 18.96h172.1c10.45 0 18.95-8.51 18.95-18.96V18.951C191.05 8.501 182.55 0 172.1 0Z" style="fill:#13aa4a;fill-opacity:1;fill-rule:nonzero;stroke:none" transform="matrix(1.3333 0 0 -1.3333 33 458.48)"/><path d="M0 0h-172.1c-13.76 0-24.95-11.193-24.95-24.951V-324.76c0-13.76 11.19-24.96 24.95-24.96H0c13.758 0 24.951 11.2 24.951 24.96v299.809C24.951-11.193 13.758 0 0 0m0-12c7.153 0 12.951-5.798 12.951-12.951V-324.76c0-7.16-5.798-12.96-12.951-12.96h-172.1c-7.15 0-12.95 5.8-12.95 12.96v299.809c0 7.153 5.8 12.951 12.95 12.951z" clip-path="url(#a)" style="fill:#fff;fill-opacity:1;fill-rule:nonzero;stroke:none" transform="matrix(1.3333 0 0 -1.3333 263 .19)"/><path d="M0 0c46.209 70.703 52.909 148.12 14.964 172.92S-91.2 160.51-137.41 89.805c-46.21-70.702-52.91-148.122-14.96-172.921C-114.43-107.92-46.209-70.703 0 0Z" style="fill:none;stroke:#fff;stroke-width:8.608;stroke-linecap:butt;stroke-linejoin:miter;stroke-miterlimit:10;stroke-dasharray:none;stroke-opacity:1" transform="matrix(1.3333 0 0 -1.3333 241 294.08)"/><g clip-path="url(#b)" transform="translate(-13588)"><path d="m0 0-6.01-39.14-10.13 12.01-34.83-29.36-.69.81c-7.47 8.87-6.35 22.12 2.52 29.6l18.77 15.83L-39.59.68z" style="fill:#000;fill-opacity:1;fill-rule:nonzero;stroke:#000;stroke-width:3;stroke-linecap:butt;stroke-linejoin:miter;stroke-miterlimit:10;stroke-dasharray:none;stroke-opacity:1" transform="matrix(1.3333 0 0 -1.3333 13789 159.33)"/></g><path d="m0 0-6.01-39.14-10.13 12.01-34.83-29.36-.69.81c-7.47 8.87-6.35 22.12 2.52 29.6l18.77 15.83L-39.59.68z" style="fill:#fff;fill-opacity:1;fill-rule:nonzero;stroke:#231f20;stroke-width:3;stroke-linecap:butt;stroke-linejoin:miter;stroke-miterlimit:10;stroke-dasharray:none;stroke-opacity:1" transform="matrix(1.3333 0 0 -1.3333 193 166)"/><g clip-path="url(#b)" transform="translate(-13588)"><path d="m0 0 6.01 39.14 10.13-12.01 34.83 29.36.69-.81c7.47-8.87 6.35-22.12-2.52-29.6L30.37 10.25 39.59-.68Z" style="fill:#000;fill-opacity:1;fill-rule:nonzero;stroke:#000;stroke-width:3;stroke-linecap:butt;stroke-linejoin:miter;stroke-miterlimit:10;stroke-dasharray:none;stroke-opacity:1" transform="matrix(1.3333 0 0 -1.3333 13688 284.88)"/></g><path d="m0 0 6.01 39.14 10.13-12.01 34.83 29.36.69-.81c7.47-8.87 6.35-22.12-2.52-29.6L30.37 10.25 39.59-.68Z" style="fill:#fff;fill-opacity:1;fill-rule:nonzero;stroke:#231f20;stroke-width:3;stroke-linecap:butt;stroke-linejoin:miter;stroke-miterlimit:10;stroke-dasharray:none;stroke-opacity:1" transform="matrix(1.3333 0 0 -1.3333 92 291.55)"/><g clip-path="url(#b)" transform="translate(-13588)"><path d="m0 0-3.151-20.524-5.312 6.298-18.264-15.396-.362.425c-3.917 4.651-3.33 11.599 1.322 15.521l9.842 8.301L-20.76.357z" style="fill:#000;fill-opacity:1;fill-rule:nonzero;stroke:#000;stroke-width:1.573;stroke-linecap:butt;stroke-linejoin:miter;stroke-miterlimit:10;stroke-dasharray:none;stroke-opacity:1" transform="matrix(1.3333 0 0 -1.3333 13672 27.335)"/></g><path d="m0 0-3.151-20.524-5.312 6.298-18.264-15.396-.362.425c-3.917 4.651-3.33 11.599 1.322 15.521l9.842 8.301L-20.76.357z" style="fill:#fff;fill-opacity:1;fill-rule:nonzero;stroke:#231f20;stroke-width:1.573;stroke-linecap:butt;stroke-linejoin:miter;stroke-miterlimit:10;stroke-dasharray:none;stroke-opacity:1" transform="matrix(1.3333 0 0 -1.3333 80 30.831)"/><g clip-path="url(#b)" transform="translate(-13588)"><path d="m0 0 3.151 20.524 5.312-6.298 18.264 15.396.362-.425c3.917-4.651 3.33-11.599-1.322-15.521l-9.842-8.301L20.76-.357Z" style="fill:#000;fill-opacity:1;fill-rule:nonzero;stroke:#000;stroke-width:1.573;stroke-linecap:butt;stroke-linejoin:miter;stroke-miterlimit:10;stroke-dasharray:none;stroke-opacity:1" transform="matrix(1.3333 0 0 -1.3333 13619 93.169)"/></g><path d="m0 0 3.151 20.524 5.312-6.298 18.264 15.396.362-.425c3.917-4.651 3.33-11.599-1.322-15.521l-9.842-8.301L20.76-.357Z" style="fill:#fff;fill-opacity:1;fill-rule:nonzero;stroke:#231f20;stroke-width:1.573;stroke-linecap:butt;stroke-linejoin:miter;stroke-miterlimit:10;stroke-dasharray:none;stroke-opacity:1" transform="matrix(1.3333 0 0 -1.3333 27 96.665)"/><g clip-path="url(#b)" transform="translate(-13588)"><path d="m0 0-3.151-20.524-5.312 6.298-18.264-15.396-.362.425c-3.917 4.651-3.33 11.599 1.322 15.521l9.842 8.301L-20.76.357z" style="fill:#000;fill-opacity:1;fill-rule:nonzero;stroke:#000;stroke-width:1.573;stroke-linecap:butt;stroke-linejoin:miter;stroke-miterlimit:10;stroke-dasharray:none;stroke-opacity:1" transform="matrix(1.3333 0 0 -1.3333 13859 371.63)"/></g><path d="m0 0-3.151-20.524-5.312 6.298-18.264-15.396-.362.425c-3.917 4.651-3.33 11.599 1.322 15.521l9.842 8.301L-20.76.357z" style="fill:#fff;fill-opacity:1;fill-rule:nonzero;stroke:#231f20;stroke-width:1.573;stroke-linecap:butt;stroke-linejoin:miter;stroke-miterlimit:10;stroke-dasharray:none;stroke-opacity:1" transform="matrix(1.3333 0 0 -1.3333 267 375.13)"/><g clip-path="url(#b)" transform="translate(-13588)"><path d="m0 0 3.151 20.524 5.312-6.298 18.264 15.396.362-.425c3.917-4.651 3.33-11.599-1.322-15.521l-9.842-8.301L20.76-.357Z" style="fill:#000;fill-opacity:1;fill-rule:nonzero;stroke:#000;stroke-width:1.573;stroke-linecap:butt;stroke-linejoin:miter;stroke-miterlimit:10;stroke-dasharray:none;stroke-opacity:1" transform="matrix(1.3333 0 0 -1.3333 13806 437.46)"/></g><path d="m0 0 3.151 20.524 5.312-6.298 18.264 15.396.362-.425c3.917-4.651 3.33-11.599-1.322-15.521l-9.842-8.301L20.76-.357Z" style="fill:#fff;fill-opacity:1;fill-rule:nonzero;stroke:#231f20;stroke-width:1.573;stroke-linecap:butt;stroke-linejoin:miter;stroke-miterlimit:10;stroke-dasharray:none;stroke-opacity:1" transform="matrix(1.3333 0 0 -1.3333 214 440.96)"/></svg>