<svg xmlns="http://www.w3.org/2000/svg" width="296" height="466.67" viewBox="0 0 296 466.67"><defs><clipPath id="a" clipPathUnits="userSpaceOnUse"><path d="M-197.12.142H24.882V-349.86H-197.12Z"/></clipPath><clipPath id="c" clipPathUnits="userSpaceOnUse"><path d="M-3-141.87h106.78V43.781H-3Z"/></clipPath><clipPath id="b" clipPathUnits="userSpaceOnUse"><path d="M948 0h296v466.67H948Z"/></clipPath><clipPath id="e" clipPathUnits="userSpaceOnUse"><path d="M-1.357-64.156h48.288v83.954H-1.357Z"/></clipPath><clipPath id="d" clipPathUnits="userSpaceOnUse"><path d="M948 0h296v466.67H948Z"/></clipPath><clipPath id="g" clipPathUnits="userSpaceOnUse"><path d="M46.932 19.798H-1.356v-83.953h48.288Z"/></clipPath><clipPath id="f" clipPathUnits="userSpaceOnUse"><path d="M948 0h296v466.67H948Z"/></clipPath></defs><path d="M0 0c-10.45 0-18.951 8.501-18.951 18.951V318.76c0 10.45 8.501 18.96 18.951 18.96h172.1c10.45 0 18.95-8.51 18.95-18.96V18.951C191.05 8.501 182.55 0 172.1 0Z" style="fill:#d32426;fill-opacity:1;fill-rule:nonzero;stroke:none" transform="matrix(1.3333 0 0 -1.3333 33.36 458.48)"/><path d="M0 0h-172.1c-13.76 0-24.95-11.193-24.95-24.951V-324.76c0-13.76 11.19-24.96 24.95-24.96H0c13.758 0 24.951 11.2 24.951 24.96v299.809C24.951-11.193 13.758 0 0 0m0-12c7.153 0 12.951-5.798 12.951-12.951V-324.76c0-7.16-5.798-12.96-12.951-12.96h-172.1c-7.15 0-12.95 5.8-12.95 12.96v299.809c0 7.153 5.8 12.951 12.95 12.951z" clip-path="url(#a)" style="fill:#fff;fill-opacity:1;fill-rule:nonzero;stroke:none" transform="matrix(1.3333 0 0 -1.3333 262.8 .19)"/><g clip-path="url(#b)" transform="translate(-948)"><text xml:space="preserve" clip-path="url(#c)" transform="translate(1019.3 319.7)scale(1.3333)"><tspan x="0" y="0" style="font-variant:normal;font-weight:700;font-stretch:normal;font-size:160px;font-family:Rockwell;writing-mode:lr-tb;fill:#000;fill-opacity:1;fill-rule:nonzero;stroke:none">3</tspan></text><path d="M0 0q-11.133 8.477-29.805 8.477-17.656 0-28.437-8.946T-70.273-25.43l24.765-2.109q0 15.703 14.063 15.703 6.25 0 10.351-3.437 4.102-3.44 4.102-8.907 0-6.875-6.094-10.547t-16.953-3.828v-21.484q5.077.39 6.562.391 9.375 0 14.493-4.571 5.116-4.571 5.117-11.914 0-7.11-4.844-11.953-4.844-4.844-12.578-4.844-16.798 0-16.953 20.625l-25.625-2.109q3.047-38.515 45.312-38.516c8.438 0 16.016 1.48 22.735 4.45 6.718 2.97 11.965 7.18 15.742 12.621q5.663 8.163 5.664 18.711 0 20.468-22.188 28.046 17.735 8.28 17.735 26.016Q11.133-8.478 0 0Z" style="fill:none;stroke:#000;stroke-width:6;stroke-linecap:butt;stroke-linejoin:miter;stroke-miterlimit:10;stroke-dasharray:none;stroke-opacity:1" transform="matrix(1.3333 0 0 -1.3333 1124.4 171.21)"/></g><text xml:space="preserve" transform="translate(78 315.7)scale(1.3333)"><tspan x="0" y="0" style="font-variant:normal;font-weight:700;font-stretch:normal;font-size:160px;font-family:Rockwell;writing-mode:lr-tb;fill:#fff;fill-opacity:1;fill-rule:nonzero;stroke:none">3</tspan></text><path d="M0 0q-11.133 8.477-29.805 8.477-17.656 0-28.437-8.946T-70.273-25.43l24.765-2.109q0 15.703 14.063 15.703 6.25 0 10.351-3.437 4.102-3.44 4.102-8.907 0-6.875-6.094-10.547t-16.953-3.828v-21.484q5.077.39 6.562.391 9.375 0 14.493-4.571 5.116-4.571 5.117-11.914 0-7.11-4.844-11.953-4.844-4.844-12.578-4.844-16.798 0-16.953 20.625l-25.625-2.109q3.047-38.515 45.312-38.516c8.438 0 16.016 1.48 22.735 4.45 6.718 2.97 11.965 7.18 15.742 12.621q5.663 8.163 5.664 18.711 0 20.468-22.188 28.046 17.735 8.28 17.735 26.016Q11.133-8.478 0 0Z" style="fill:none;stroke:#231f20;stroke-width:6;stroke-linecap:butt;stroke-linejoin:miter;stroke-miterlimit:10;stroke-dasharray:none;stroke-opacity:1" transform="matrix(1.3333 0 0 -1.3333 183 167.21)"/><g clip-path="url(#d)" transform="translate(-948)"><text xml:space="preserve" clip-path="url(#e)" transform="translate(968.24 107.77)scale(1.3333)"><tspan x="0" y="0" style="font-variant:normal;font-weight:700;font-stretch:normal;font-size:72.3553px;font-family:Rockwell;writing-mode:lr-tb;fill:#000;fill-opacity:1;fill-rule:nonzero;stroke:none">3</tspan></text><path d="M0 0q-5.034 3.834-13.479 3.833-7.984 0-12.859-4.045-4.876-4.045-5.441-11.288l11.2-.954q0 7.102 6.359 7.102 2.826 0 4.681-1.555t1.855-4.027q0-3.11-2.755-4.77-2.757-1.66-7.667-1.731v-9.716q2.296.177 2.967.177 4.24 0 6.554-2.067 2.313-2.066 2.314-5.388 0-3.215-2.19-5.405t-5.688-2.19q-7.597 0-7.667 9.327l-11.588-.954q1.378-17.418 20.491-17.418 5.723 0 10.281 2.014 4.557 2.014 7.119 5.706t2.562 8.461q0 9.257-10.034 12.683 8.019 3.745 8.019 11.766Q5.034-3.834 0 0Z" style="fill:none;stroke:#000;stroke-width:2.713;stroke-linecap:butt;stroke-linejoin:miter;stroke-miterlimit:10;stroke-dasharray:none;stroke-opacity:1" transform="matrix(1.3333 0 0 -1.3333 1015.7 40.622)"/></g><text xml:space="preserve" transform="translate(26.91 103.77)scale(1.3333)"><tspan x="0" y="0" style="font-variant:normal;font-weight:700;font-stretch:normal;font-size:72.3553px;font-family:Rockwell;writing-mode:lr-tb;fill:#fff;fill-opacity:1;fill-rule:nonzero;stroke:none">3</tspan></text><path d="M0 0q-5.034 3.834-13.479 3.833-7.984 0-12.859-4.045-4.876-4.045-5.441-11.288l11.2-.954q0 7.102 6.359 7.102 2.826 0 4.681-1.555t1.855-4.027q0-3.11-2.755-4.77-2.757-1.66-7.667-1.731v-9.716q2.296.177 2.967.177 4.24 0 6.554-2.067 2.313-2.066 2.314-5.388 0-3.215-2.19-5.405t-5.688-2.19q-7.597 0-7.667 9.327l-11.588-.954q1.378-17.418 20.491-17.418 5.723 0 10.281 2.014 4.557 2.014 7.119 5.706t2.562 8.461q0 9.257-10.034 12.683 8.019 3.745 8.019 11.766Q5.034-3.834 0 0Z" style="fill:none;stroke:#231f20;stroke-width:2.713;stroke-linecap:butt;stroke-linejoin:miter;stroke-miterlimit:10;stroke-dasharray:none;stroke-opacity:1" transform="matrix(1.3333 0 0 -1.3333 74.4 36.622)"/><g clip-path="url(#f)" transform="translate(-948)"><text xml:space="preserve" clip-path="url(#g)" transform="translate(1210 367.77)scale(-1.3333)"><tspan x="0" y="0" style="font-variant:normal;font-weight:700;font-stretch:normal;font-size:72.3553px;font-family:Rockwell;writing-mode:lr-tb;fill:#000;fill-opacity:1;fill-rule:nonzero;stroke:none">3</tspan></text><path d="M0 0q5.034-3.833 13.479-3.833 7.984 0 12.859 4.045 4.876 4.045 5.441 11.288l-11.2.954q0-7.102-6.359-7.102-2.826 0-4.681 1.555t-1.855 4.027q0 3.11 2.755 4.77 2.757 1.66 7.667 1.731v9.716q-2.296-.177-2.967-.177-4.24 0-6.554 2.067-2.313 2.066-2.314 5.388 0 3.215 2.19 5.405t5.688 2.19q7.597 0 7.667-9.327l11.588.954q-1.378 17.418-20.491 17.418-5.723 0-10.281-2.014-4.557-2.014-7.119-5.706t-2.562-8.461q0-9.257 10.034-12.683-8.019-3.745-8.019-11.766Q-5.034 3.834 0 0Z" style="fill:none;stroke:#000;stroke-width:2.713;stroke-linecap:butt;stroke-linejoin:miter;stroke-miterlimit:10;stroke-dasharray:none;stroke-opacity:1" transform="matrix(1.3333 0 0 -1.3333 1162.5 434.92)"/></g><text xml:space="preserve" transform="translate(268.6 363.77)scale(-1.3333)"><tspan x="0" y="0" style="font-variant:normal;font-weight:700;font-stretch:normal;font-size:72.3553px;font-family:Rockwell;writing-mode:lr-tb;fill:#fff;fill-opacity:1;fill-rule:nonzero;stroke:none">3</tspan></text><path d="M0 0q5.034-3.833 13.479-3.833 7.984 0 12.859 4.045 4.876 4.045 5.441 11.288l-11.2.954q0-7.102-6.359-7.102-2.826 0-4.681 1.555t-1.855 4.027q0 3.11 2.755 4.77 2.757 1.66 7.667 1.731v9.716q-2.296-.177-2.967-.177-4.24 0-6.554 2.067-2.313 2.066-2.314 5.388 0 3.215 2.19 5.405t5.688 2.19q7.597 0 7.667-9.327l11.588.954q-1.378 17.418-20.491 17.418-5.723 0-10.281-2.014-4.557-2.014-7.119-5.706t-2.562-8.461q0-9.257 10.034-12.683-8.019-3.745-8.019-11.766Q-5.034 3.834 0 0Z" style="fill:none;stroke:#231f20;stroke-width:2.713;stroke-linecap:butt;stroke-linejoin:miter;stroke-miterlimit:10;stroke-dasharray:none;stroke-opacity:1" transform="matrix(1.3333 0 0 -1.3333 221.1 430.92)"/><path d="M0 0c46.209 70.703 52.909 148.12 14.964 172.92S-91.2 160.51-137.41 89.805c-46.21-70.702-52.91-148.122-14.96-172.921C-114.43-107.92-46.209-70.703 0 0Z" style="fill:none;stroke:#fff;stroke-width:8.608;stroke-linecap:butt;stroke-linejoin:miter;stroke-miterlimit:10;stroke-dasharray:none;stroke-opacity:1" transform="matrix(1.3333 0 0 -1.3333 241 294.08)"/></svg>