<svg xmlns="http://www.w3.org/2000/svg" width="296" height="466.67" viewBox="0 0 296 466.67"><defs><clipPath id="a" clipPathUnits="userSpaceOnUse"><path d="M-197.19.142H24.814V-349.86H-197.19Z"/></clipPath><clipPath id="c" clipPathUnits="userSpaceOnUse"><path d="M-3-141.87h106.78V43.781H-3Z"/></clipPath><clipPath id="b" clipPathUnits="userSpaceOnUse"><path d="M2844 0h296v466.67h-296z"/></clipPath><clipPath id="e" clipPathUnits="userSpaceOnUse"><path d="M-1.358-64.156h48.29v83.954h-48.29Z"/></clipPath><clipPath id="d" clipPathUnits="userSpaceOnUse"><path d="M2844 0h296v466.67h-296z"/></clipPath><clipPath id="g" clipPathUnits="userSpaceOnUse"><path d="M46.932 19.798H-1.356v-83.953h48.288Z"/></clipPath><clipPath id="f" clipPathUnits="userSpaceOnUse"><path d="M2844 0h296v466.67h-296z"/></clipPath></defs><path d="M0 0c-10.45 0-18.951 8.501-18.951 18.951V318.76c0 10.45 8.501 18.96 18.951 18.96h172.1c10.45 0 18.95-8.51 18.95-18.96V18.951C191.05 8.501 182.55 0 172.1 0Z" style="fill:#d32426;fill-opacity:1;fill-rule:nonzero;stroke:none" transform="matrix(1.3333 0 0 -1.3333 33.5 458.48)"/><path d="M0 0h-172.1c-13.76 0-24.95-11.193-24.95-24.951V-324.76c0-13.76 11.19-24.96 24.95-24.96H0c13.758 0 24.951 11.2 24.951 24.96v299.809C24.951-11.193 13.758 0 0 0m0-12c7.153 0 12.951-5.798 12.951-12.951V-324.76c0-7.16-5.798-12.96-12.951-12.96h-172.1c-7.15 0-12.95 5.8-12.95 12.96v299.809c0 7.153 5.8 12.951 12.95 12.951z" clip-path="url(#a)" style="fill:#fff;fill-opacity:1;fill-rule:nonzero;stroke:none" transform="matrix(1.3333 0 0 -1.3333 262.9 .19)"/><g clip-path="url(#b)" transform="translate(-2844)"><text xml:space="preserve" clip-path="url(#c)" transform="translate(2915.4 319.7)scale(1.3333)"><tspan x="0" y="0" style="font-variant:normal;font-weight:700;font-stretch:normal;font-size:160px;font-family:Rockwell;writing-mode:lr-tb;fill:#000;fill-opacity:1;fill-rule:nonzero;stroke:none">9</tspan></text><path d="M0 0q-12.501-.001-22.031-5.117-9.532-5.117-14.805-14.258t-5.273-20.781q-.001-9.922 4.648-18.477 4.648-8.554 12.969-13.594t19.023-5.039q6.093 0 11.992 1.524 5.898 1.523 10.899 4.179-1.64-14.688-6.68-22.382-5.04-7.696-13.32-7.695c-3.543 0-6.485 1.24-8.828 3.71q-3.517 3.71-5.938 11.524l-22.89-2.266c.781-10.312 4.556-18.348 11.328-24.098q10.155-8.64 26.484-8.64c32.083 0 48.125 20.32 48.125 60.941Q45.703.001 0 0Zm-10.977-51.914q-4.57 5.038-4.57 13.476 0 8.203 3.906 13.321Q-7.734-20.001-2.109-20q9.452 0 14.648-8.477t5.195-23.398v-.469Q8.125-56.954.937-56.953q-7.344 0-11.914 5.039z" style="fill:none;stroke:#000;stroke-width:6;stroke-linecap:butt;stroke-linejoin:miter;stroke-miterlimit:10;stroke-dasharray:none;stroke-opacity:1" transform="matrix(1.3333 0 0 -1.3333 2980.1 159.91)"/></g><text xml:space="preserve" transform="translate(78.1 315.7)scale(1.3333)"><tspan x="0" y="0" style="font-variant:normal;font-weight:700;font-stretch:normal;font-size:160px;font-family:Rockwell;writing-mode:lr-tb;fill:#fff;fill-opacity:1;fill-rule:nonzero;stroke:none">9</tspan></text><path d="M0 0q-12.501-.001-22.031-5.117-9.532-5.117-14.805-14.258t-5.273-20.781q-.001-9.922 4.648-18.477 4.648-8.554 12.969-13.594t19.023-5.039q6.093 0 11.992 1.524 5.898 1.523 10.899 4.179-1.64-14.688-6.68-22.382-5.04-7.696-13.32-7.695c-3.543 0-6.485 1.24-8.828 3.71q-3.517 3.71-5.938 11.524l-22.89-2.266c.781-10.312 4.556-18.348 11.328-24.098q10.155-8.64 26.484-8.64c32.083 0 48.125 20.32 48.125 60.941Q45.703.001 0 0Zm-10.977-51.914q-4.57 5.038-4.57 13.476 0 8.203 3.906 13.321Q-7.734-20.001-2.109-20q9.452 0 14.648-8.477t5.195-23.398v-.469Q8.125-56.954.937-56.953q-7.344 0-11.914 5.039z" style="fill:none;stroke:#231f20;stroke-width:6;stroke-linecap:butt;stroke-linejoin:miter;stroke-miterlimit:10;stroke-dasharray:none;stroke-opacity:1" transform="matrix(1.3333 0 0 -1.3333 142.8 155.91)"/><g clip-path="url(#d)" transform="translate(-2844)"><text xml:space="preserve" clip-path="url(#e)" transform="translate(2864.3 107.77)scale(1.3333)"><tspan x="0" y="0" style="font-variant:normal;font-weight:700;font-stretch:normal;font-size:72.3553px;font-family:Rockwell;writing-mode:lr-tb;fill:#000;fill-opacity:1;fill-rule:nonzero;stroke:none">9</tspan></text><path d="M0 0q-5.653 0-9.963-2.314t-6.694-6.448q-2.385-4.134-2.385-9.398 0-4.486 2.102-8.355a16 16 0 0 1 5.865-6.147q3.762-2.28 8.602-2.279 2.756 0 5.423.689a22.4 22.4 0 0 1 4.929 1.89q-.742-6.644-3.021-10.122-2.278-3.48-6.024-3.48-2.403 0-3.992 1.678-1.59 1.678-2.685 5.211l-10.351-1.024q.529-6.996 5.123-10.9 4.592-3.903 11.976-3.903 21.762 0 21.763 27.557Q20.668 0 0 0Zm-4.964-23.477q-2.066 2.279-2.066 6.095 0 3.71 1.766 6.024t4.311 2.314q4.274 0 6.624-3.833 2.35-3.835 2.35-10.582v-.212Q3.674-25.756.424-25.755q-3.321 0-5.388 2.278z" style="fill:none;stroke:#000;stroke-width:2.713;stroke-linecap:butt;stroke-linejoin:miter;stroke-miterlimit:10;stroke-dasharray:none;stroke-opacity:1" transform="matrix(1.3333 0 0 -1.3333 2893.6 35.51)"/></g><text xml:space="preserve" transform="translate(27 103.77)scale(1.3333)"><tspan x="0" y="0" style="font-variant:normal;font-weight:700;font-stretch:normal;font-size:72.3553px;font-family:Rockwell;writing-mode:lr-tb;fill:#fff;fill-opacity:1;fill-rule:nonzero;stroke:none">9</tspan></text><path d="M0 0q-5.653 0-9.963-2.314t-6.694-6.448q-2.385-4.134-2.385-9.398 0-4.486 2.102-8.355a16 16 0 0 1 5.865-6.147q3.762-2.28 8.602-2.279 2.756 0 5.423.689a22.4 22.4 0 0 1 4.929 1.89q-.742-6.644-3.021-10.122-2.278-3.48-6.024-3.48-2.403 0-3.992 1.678-1.59 1.678-2.685 5.211l-10.351-1.024q.529-6.996 5.123-10.9 4.592-3.903 11.976-3.903 21.762 0 21.763 27.557Q20.668 0 0 0Zm-4.964-23.477q-2.066 2.279-2.066 6.095 0 3.71 1.766 6.024t4.311 2.314q4.274 0 6.624-3.833 2.35-3.835 2.35-10.582v-.212Q3.674-25.756.424-25.755q-3.321 0-5.388 2.278z" style="fill:none;stroke:#231f20;stroke-width:2.713;stroke-linecap:butt;stroke-linejoin:miter;stroke-miterlimit:10;stroke-dasharray:none;stroke-opacity:1" transform="matrix(1.3333 0 0 -1.3333 56.3 31.51)"/><g clip-path="url(#f)" transform="translate(-2844)"><text xml:space="preserve" clip-path="url(#g)" transform="translate(3106.1 367.77)scale(-1.3333)"><tspan x="0" y="0" style="font-variant:normal;font-weight:700;font-stretch:normal;font-size:72.3553px;font-family:Rockwell;writing-mode:lr-tb;fill:#000;fill-opacity:1;fill-rule:nonzero;stroke:none">9</tspan></text><path d="M0 0q5.654 0 9.963 2.314 4.31 2.314 6.694 6.448t2.385 9.398q0 4.486-2.102 8.355a16 16 0 0 1-5.865 6.147q-3.762 2.28-8.602 2.279-2.756 0-5.423-.689a22.4 22.4 0 0 1-4.929-1.89q.742 6.644 3.021 10.122 2.279 3.48 6.024 3.48 2.403 0 3.992-1.678 1.59-1.678 2.685-5.211l10.351 1.024q-.529 6.996-5.123 10.9-4.591 3.903-11.976 3.903-21.762 0-21.763-27.557Q-20.668 0 0 0Zm4.964 23.477q2.066-2.279 2.066-6.095 0-3.71-1.766-6.024T.953 9.044q-4.273 0-6.624 3.833-2.35 3.835-2.35 10.582v.212q4.347 2.085 7.597 2.084 3.321 0 5.388-2.278z" style="fill:none;stroke:#000;stroke-width:2.713;stroke-linecap:butt;stroke-linejoin:miter;stroke-miterlimit:10;stroke-dasharray:none;stroke-opacity:1" transform="matrix(1.3333 0 0 -1.3333 3076.8 440.03)"/></g><text xml:space="preserve" transform="translate(268.7 363.77)scale(-1.3333)"><tspan x="0" y="0" style="font-variant:normal;font-weight:700;font-stretch:normal;font-size:72.3553px;font-family:Rockwell;writing-mode:lr-tb;fill:#fff;fill-opacity:1;fill-rule:nonzero;stroke:none">9</tspan></text><path d="M0 0q5.654 0 9.963 2.314 4.31 2.314 6.694 6.448t2.385 9.398q0 4.486-2.102 8.355a16 16 0 0 1-5.865 6.147q-3.762 2.28-8.602 2.279-2.756 0-5.423-.689a22.4 22.4 0 0 1-4.929-1.89q.742 6.644 3.021 10.122 2.279 3.48 6.024 3.48 2.403 0 3.992-1.678 1.59-1.678 2.685-5.211l10.351 1.024q-.529 6.996-5.123 10.9-4.591 3.903-11.976 3.903-21.762 0-21.763-27.557Q-20.668 0 0 0Zm4.964 23.477q2.066-2.279 2.066-6.095 0-3.71-1.766-6.024T.953 9.044q-4.273 0-6.624 3.833-2.35 3.835-2.35 10.582v.212q4.347 2.085 7.597 2.084 3.321 0 5.388-2.278z" style="fill:none;stroke:#231f20;stroke-width:2.713;stroke-linecap:butt;stroke-linejoin:miter;stroke-miterlimit:10;stroke-dasharray:none;stroke-opacity:1" transform="matrix(1.3333 0 0 -1.3333 239.5 436.03)"/><path d="M0 0c46.209 70.703 52.909 148.12 14.964 172.92S-91.2 160.51-137.41 89.805c-46.21-70.702-52.91-148.122-14.96-172.921C-114.43-107.92-46.209-70.703 0 0Z" style="fill:none;stroke:#fff;stroke-width:8.608;stroke-linecap:butt;stroke-linejoin:miter;stroke-miterlimit:10;stroke-dasharray:none;stroke-opacity:1" transform="matrix(1.3333 0 0 -1.3333 241.1 294.08)"/></svg>