<svg xmlns="http://www.w3.org/2000/svg" width="296" height="466.67" viewBox="0 0 296 466.67"><defs><clipPath id="a" clipPathUnits="userSpaceOnUse"><path d="M-196.77.805H25.233V-349.19H-196.77Z"/></clipPath><clipPath id="c" clipPathUnits="userSpaceOnUse"><path d="M-1.357-43.017H66.35v56.608H-1.357Z"/></clipPath><clipPath id="b" clipPathUnits="userSpaceOnUse"><path d="M8532 0h296v466.67h-296z"/></clipPath><clipPath id="e" clipPathUnits="userSpaceOnUse"><path d="M66.349 13.591H-1.356v-56.608h67.705Z"/></clipPath><clipPath id="d" clipPathUnits="userSpaceOnUse"><path d="M8532 0h296v466.67h-296z"/></clipPath><clipPath id="g" clipPathUnits="userSpaceOnUse"><path d="M-.856-27.119h23.623V8.568H-.856Z"/></clipPath><clipPath id="f" clipPathUnits="userSpaceOnUse"><path d="M8532 0h296v466.67h-296z"/></clipPath><clipPath id="i" clipPathUnits="userSpaceOnUse"><path d="M-.855-27.118h23.622V8.568H-.855Z"/></clipPath><clipPath id="h" clipPathUnits="userSpaceOnUse"><path d="M8532 0h296v466.67h-296z"/></clipPath><clipPath id="k" clipPathUnits="userSpaceOnUse"><path d="M-.857-27.118h23.623V8.568H-.857Z"/></clipPath><clipPath id="j" clipPathUnits="userSpaceOnUse"><path d="M8532 0h296v466.67h-296z"/></clipPath><clipPath id="m" clipPathUnits="userSpaceOnUse"><path d="M-.856-27.118h23.623V8.568H-.856Z"/></clipPath><clipPath id="l" clipPathUnits="userSpaceOnUse"><path d="M8532 0h296v466.67h-296z"/></clipPath></defs><path d="M0 0c-10.45 0-18.951 8.501-18.951 18.951V318.76c0 10.45 8.501 18.96 18.951 18.96h172.1c10.45 0 18.95-8.51 18.95-18.96V18.951C191.05 8.501 182.55 0 172.1 0Z" style="fill:#231f20;fill-opacity:1;fill-rule:nonzero;stroke:none" transform="matrix(1.3333 0 0 -1.3333 32.9 459.36)"/><path d="M0 0h-172.1c-13.76 0-24.95-11.193-24.95-24.951V-324.76c0-13.76 11.19-24.96 24.95-24.96H0c13.758 0 24.951 11.2 24.951 24.96v299.809C24.951-11.193 13.758 0 0 0m0-12c7.153 0 12.951-5.798 12.951-12.951V-324.76c0-7.16-5.798-12.96-12.951-12.96h-172.1c-7.15 0-12.95 5.8-12.95 12.96v299.809c0 7.153 5.8 12.951 12.95 12.951z" clip-path="url(#a)" style="fill:#fff;fill-opacity:1;fill-rule:nonzero;stroke:none" transform="matrix(1.3333 0 0 -1.3333 262.4 1.073)"/><g clip-path="url(#b)" transform="translate(-8532)"><text xml:space="preserve" clip-path="url(#c)" transform="translate(8556.5 80.656)scale(1.3333)"><tspan x="0" y="0" style="font-variant:normal;font-weight:700;font-stretch:normal;font-size:48px;font-family:Rockwell;writing-mode:lr-tb;fill:#000;fill-opacity:1;fill-rule:nonzero;stroke:none">+4</tspan></text><path d="M0 0v11.133h-6.352V0h-11.085v-6.375h11.085v-11.109H0v11.109h11.086V0Z" style="fill:none;stroke:#000;stroke-width:2.713;stroke-linecap:butt;stroke-linejoin:miter;stroke-miterlimit:10;stroke-dasharray:none;stroke-opacity:1" transform="matrix(1.3333 0 0 -1.3333 8583.9 52.749)"/><path d="M0 0v20.602h-7.617L-24.609-1.055q.75-1.43 1.922-4.687h14.578v-4.031h-4.266v-5.579H3.281v5.579H0v4.031h3.75V0Zm-8.109 10.195V0h-8.157z" style="fill:none;stroke:#000;stroke-width:2.713;stroke-linecap:butt;stroke-linejoin:miter;stroke-miterlimit:10;stroke-dasharray:none;stroke-opacity:1" transform="matrix(1.3333 0 0 -1.3333 8636.6 60.187)"/></g><text xml:space="preserve" transform="translate(27.2 77.989)scale(1.3333)"><tspan x="0" y="0" style="font-variant:normal;font-weight:700;font-stretch:normal;font-size:48px;font-family:Rockwell;writing-mode:lr-tb;fill:#fff;fill-opacity:1;fill-rule:nonzero;stroke:none">+4</tspan></text><path d="M0 0v11.133h-6.352V0h-11.085v-6.375h11.085v-11.109H0v11.109h11.086V0Z" style="fill:none;stroke:#231f20;stroke-width:2.713;stroke-linecap:butt;stroke-linejoin:miter;stroke-miterlimit:10;stroke-dasharray:none;stroke-opacity:1" transform="matrix(1.3333 0 0 -1.3333 54.6 50.083)"/><path d="M0 0v20.602h-7.617L-24.609-1.055q.75-1.43 1.922-4.687h14.578v-4.031h-4.266v-5.579H3.281v5.579H0v4.031h3.75V0Zm-8.109 10.195V0h-8.157z" style="fill:none;stroke:#231f20;stroke-width:2.713;stroke-linecap:butt;stroke-linejoin:miter;stroke-miterlimit:10;stroke-dasharray:none;stroke-opacity:1" transform="matrix(1.3333 0 0 -1.3333 107.2 57.52)"/><path d="M0 0c46.209 70.703 52.909 148.12 14.964 172.92S-91.2 160.51-137.41 89.805c-46.21-70.702-52.91-148.122-14.96-172.921C-114.43-107.92-46.209-70.703 0 0" style="fill:#fff;fill-opacity:1;fill-rule:nonzero;stroke:#fff;stroke-width:8.608;stroke-linecap:butt;stroke-linejoin:miter;stroke-miterlimit:10;stroke-dasharray:none;stroke-opacity:1" transform="matrix(1.3333 0 0 -1.3333 241.3 294.97)"/><g clip-path="url(#d)" transform="translate(-8532)"><text xml:space="preserve" clip-path="url(#e)" transform="translate(8801.4 388.19)scale(-1.3333)"><tspan x="0" y="0" style="font-variant:normal;font-weight:700;font-stretch:normal;font-size:48px;font-family:Rockwell;writing-mode:lr-tb;fill:#000;fill-opacity:1;fill-rule:nonzero;stroke:none">+4</tspan></text><path d="M0 0v-11.133h6.352V0h11.085v6.375H6.352v11.109H0V6.375h-11.086V0Z" style="fill:none;stroke:#000;stroke-width:2.713;stroke-linecap:butt;stroke-linejoin:miter;stroke-miterlimit:10;stroke-dasharray:none;stroke-opacity:1" transform="matrix(1.3333 0 0 -1.3333 8774 416.1)"/><path d="M0 0v-20.602h7.617L24.609 1.055q-.75 1.43-1.922 4.687H8.109v4.031h4.266v5.579H-3.281V9.773H0V5.742h-3.75V0Zm8.109-10.195V0h8.157z" style="fill:none;stroke:#000;stroke-width:2.713;stroke-linecap:butt;stroke-linejoin:miter;stroke-miterlimit:10;stroke-dasharray:none;stroke-opacity:1" transform="matrix(1.3333 0 0 -1.3333 8721.4 408.66)"/></g><text xml:space="preserve" transform="translate(272.1 385.52)scale(-1.3333)"><tspan x="0" y="0" style="font-variant:normal;font-weight:700;font-stretch:normal;font-size:48px;font-family:Rockwell;writing-mode:lr-tb;fill:#fff;fill-opacity:1;fill-rule:nonzero;stroke:none">+4</tspan></text><path d="M0 0v-11.133h6.352V0h11.085v6.375H6.352v11.109H0V6.375h-11.086V0Z" style="fill:none;stroke:#231f20;stroke-width:2.713;stroke-linecap:butt;stroke-linejoin:miter;stroke-miterlimit:10;stroke-dasharray:none;stroke-opacity:1" transform="matrix(1.3333 0 0 -1.3333 244.7 413.43)"/><path d="M0 0v-20.602h7.617L24.609 1.055q-.75 1.43-1.922 4.687H8.109v4.031h4.266v5.579H-3.281V9.773H0V5.742h-3.75V0Zm8.109-10.195V0h8.157z" style="fill:none;stroke:#231f20;stroke-width:2.713;stroke-linecap:butt;stroke-linejoin:miter;stroke-miterlimit:10;stroke-dasharray:none;stroke-opacity:1" transform="matrix(1.3333 0 0 -1.3333 192 405.99)"/><g clip-path="url(#d)" transform="translate(-8532)"><path d="M0 0h-32.569a8.257 8.257 0 0 0-8.257 8.257v66.946a8.257 8.257 0 0 0 8.257 8.257H0a8.257 8.257 0 0 0 8.257-8.257V8.257A8.257 8.257 0 0 0 0 0" style="fill:#000;fill-opacity:1;fill-rule:nonzero;stroke:#000;stroke-width:3;stroke-linecap:butt;stroke-linejoin:miter;stroke-miterlimit:10;stroke-dasharray:none;stroke-opacity:1" transform="matrix(1.3333 0 0 -1.3333 8769.2 224.06)"/></g><path d="M0 0h-32.569a8.257 8.257 0 0 0-8.257 8.257v66.946a8.257 8.257 0 0 0 8.257 8.257H0a8.257 8.257 0 0 0 8.257-8.257V8.257A8.257 8.257 0 0 0 0 0" style="fill:#13aa4a;fill-opacity:1;fill-rule:nonzero;stroke:#231f20;stroke-width:3;stroke-linecap:butt;stroke-linejoin:miter;stroke-miterlimit:10;stroke-dasharray:none;stroke-opacity:1" transform="matrix(1.3333 0 0 -1.3333 234.6 226.73)"/><g clip-path="url(#d)" transform="translate(-8532)"><path d="M0 0h-32.569a8.257 8.257 0 0 0-8.257 8.257v66.946a8.257 8.257 0 0 0 8.257 8.257H0a8.257 8.257 0 0 0 8.257-8.257V8.257A8.257 8.257 0 0 0 0 0" style="fill:#000;fill-opacity:1;fill-rule:nonzero;stroke:#000;stroke-width:3;stroke-linecap:butt;stroke-linejoin:miter;stroke-miterlimit:10;stroke-dasharray:none;stroke-opacity:1" transform="matrix(1.3333 0 0 -1.3333 8726.1 301.13)"/></g><path d="M0 0h-32.569a8.257 8.257 0 0 0-8.257 8.257v66.946a8.257 8.257 0 0 0 8.257 8.257H0a8.257 8.257 0 0 0 8.257-8.257V8.257A8.257 8.257 0 0 0 0 0" style="fill:#293492;fill-opacity:1;fill-rule:nonzero;stroke:#231f20;stroke-width:3;stroke-linecap:butt;stroke-linejoin:miter;stroke-miterlimit:10;stroke-dasharray:none;stroke-opacity:1" transform="matrix(1.3333 0 0 -1.3333 191.4 303.79)"/><g clip-path="url(#d)" transform="translate(-8532)"><path d="M0 0h-32.569a8.257 8.257 0 0 0-8.257 8.257v66.946a8.257 8.257 0 0 0 8.257 8.257H0a8.257 8.257 0 0 0 8.257-8.257V8.257A8.257 8.257 0 0 0 0 0" style="fill:#000;fill-opacity:1;fill-rule:nonzero;stroke:#000;stroke-width:3;stroke-linecap:butt;stroke-linejoin:miter;stroke-miterlimit:10;stroke-dasharray:none;stroke-opacity:1" transform="matrix(1.3333 0 0 -1.3333 8646.1 335.34)"/></g><path d="M0 0h-32.569a8.257 8.257 0 0 0-8.257 8.257v66.946a8.257 8.257 0 0 0 8.257 8.257H0a8.257 8.257 0 0 0 8.257-8.257V8.257A8.257 8.257 0 0 0 0 0" style="fill:#ffce16;fill-opacity:1;fill-rule:nonzero;stroke:#231f20;stroke-width:3;stroke-linecap:butt;stroke-linejoin:miter;stroke-miterlimit:10;stroke-dasharray:none;stroke-opacity:1" transform="matrix(1.3333 0 0 -1.3333 111.4 338.01)"/><g clip-path="url(#d)" transform="translate(-8532)"><path d="M0 0h-32.569a8.257 8.257 0 0 0-8.257 8.257v66.946a8.257 8.257 0 0 0 8.257 8.257H0a8.257 8.257 0 0 0 8.257-8.257V8.257A8.257 8.257 0 0 0 0 0" style="fill:#000;fill-opacity:1;fill-rule:nonzero;stroke:#000;stroke-width:3;stroke-linecap:butt;stroke-linejoin:miter;stroke-miterlimit:10;stroke-dasharray:none;stroke-opacity:1" transform="matrix(1.3333 0 0 -1.3333 8688.1 264.22)"/></g><path d="M0 0h-32.569a8.257 8.257 0 0 0-8.257 8.257v66.946a8.257 8.257 0 0 0 8.257 8.257H0a8.257 8.257 0 0 0 8.257-8.257V8.257A8.257 8.257 0 0 0 0 0" style="fill:#d32426;fill-opacity:1;fill-rule:nonzero;stroke:#231f20;stroke-width:3;stroke-linecap:butt;stroke-linejoin:miter;stroke-miterlimit:10;stroke-dasharray:none;stroke-opacity:1" transform="matrix(1.3333 0 0 -1.3333 153.4 266.89)"/><g clip-path="url(#f)" transform="translate(-8532)"><text xml:space="preserve" clip-path="url(#g)" transform="translate(8662 339.69)scale(1.3333)"><tspan x="0" y="0" style="font-variant:normal;font-weight:700;font-stretch:normal;font-size:30.2592px;font-family:Rockwell;writing-mode:lr-tb;fill:#000;fill-opacity:1;fill-rule:nonzero;stroke:none">+</tspan></text><path d="M0 0v7.019h-4.004V0h-6.989v-4.019h6.989v-7.003H0v7.003h6.988V0Z" style="fill:none;stroke:#000;stroke-width:1.71;stroke-linecap:butt;stroke-linejoin:miter;stroke-miterlimit:10;stroke-dasharray:none;stroke-opacity:1" transform="matrix(1.3333 0 0 -1.3333 8679.3 322.1)"/></g><text xml:space="preserve" transform="translate(131.7 338.01)scale(1.3333)"><tspan x="0" y="0" style="font-variant:normal;font-weight:700;font-stretch:normal;font-size:30.2592px;font-family:Rockwell;writing-mode:lr-tb;fill:#fff;fill-opacity:1;fill-rule:nonzero;stroke:none">+</tspan></text><path d="M0 0v7.019h-4.004V0h-6.989v-4.019h6.989v-7.003H0v7.003h6.988V0Z" style="fill:none;stroke:#231f20;stroke-width:1.71;stroke-linecap:butt;stroke-linejoin:miter;stroke-miterlimit:10;stroke-dasharray:none;stroke-opacity:1" transform="matrix(1.3333 0 0 -1.3333 149 320.41)"/><g clip-path="url(#h)" transform="translate(-8532)"><text xml:space="preserve" clip-path="url(#i)" transform="translate(8674 147.01)scale(1.3333)"><tspan x="0" y="0" style="font-variant:normal;font-weight:700;font-stretch:normal;font-size:30.2592px;font-family:Rockwell;writing-mode:lr-tb;fill:#000;fill-opacity:1;fill-rule:nonzero;stroke:none">+</tspan></text><path d="M0 0v7.019h-4.004V0h-6.989v-4.019h6.989v-7.003H0v7.003h6.988V0Z" style="fill:none;stroke:#000;stroke-width:1.71;stroke-linecap:butt;stroke-linejoin:miter;stroke-miterlimit:10;stroke-dasharray:none;stroke-opacity:1" transform="matrix(1.3333 0 0 -1.3333 8691.3 129.41)"/></g><text xml:space="preserve" transform="translate(143.7 145.32)scale(1.3333)"><tspan x="0" y="0" style="font-variant:normal;font-weight:700;font-stretch:normal;font-size:30.2592px;font-family:Rockwell;writing-mode:lr-tb;fill:#fff;fill-opacity:1;fill-rule:nonzero;stroke:none">+</tspan></text><path d="M0 0v7.019h-4.004V0h-6.989v-4.019h6.989v-7.003H0v7.003h6.988V0Z" style="fill:none;stroke:#231f20;stroke-width:1.71;stroke-linecap:butt;stroke-linejoin:miter;stroke-miterlimit:10;stroke-dasharray:none;stroke-opacity:1" transform="matrix(1.3333 0 0 -1.3333 161 127.73)"/><g clip-path="url(#j)" transform="translate(-8532)"><text xml:space="preserve" clip-path="url(#k)" transform="translate(8743.2 264.76)scale(1.3333)"><tspan x="0" y="0" style="font-variant:normal;font-weight:700;font-stretch:normal;font-size:30.2592px;font-family:Rockwell;writing-mode:lr-tb;fill:#000;fill-opacity:1;fill-rule:nonzero;stroke:none">+</tspan></text><path d="M0 0v7.019h-4.004V0h-6.989v-4.019h6.989v-7.003H0v7.003h6.988V0Z" style="fill:none;stroke:#000;stroke-width:1.71;stroke-linecap:butt;stroke-linejoin:miter;stroke-miterlimit:10;stroke-dasharray:none;stroke-opacity:1" transform="matrix(1.3333 0 0 -1.3333 8760.5 247.16)"/></g><text xml:space="preserve" transform="translate(212.9 263.07)scale(1.3333)"><tspan x="0" y="0" style="font-variant:normal;font-weight:700;font-stretch:normal;font-size:30.2592px;font-family:Rockwell;writing-mode:lr-tb;fill:#fff;fill-opacity:1;fill-rule:nonzero;stroke:none">+</tspan></text><path d="M0 0v7.019h-4.004V0h-6.989v-4.019h6.989v-7.003H0v7.003h6.988V0Z" style="fill:none;stroke:#231f20;stroke-width:1.71;stroke-linecap:butt;stroke-linejoin:miter;stroke-miterlimit:10;stroke-dasharray:none;stroke-opacity:1" transform="matrix(1.3333 0 0 -1.3333 230.1 245.48)"/><g clip-path="url(#l)" transform="translate(-8532)"><text xml:space="preserve" clip-path="url(#m)" transform="translate(8590.8 221.61)scale(1.3333)"><tspan x="0" y="0" style="font-variant:normal;font-weight:700;font-stretch:normal;font-size:30.2592px;font-family:Rockwell;writing-mode:lr-tb;fill:#000;fill-opacity:1;fill-rule:nonzero;stroke:none">+</tspan></text><path d="M0 0v7.019h-4.004V0h-6.989v-4.019h6.989v-7.003H0v7.003h6.988V0Z" style="fill:none;stroke:#000;stroke-width:1.71;stroke-linecap:butt;stroke-linejoin:miter;stroke-miterlimit:10;stroke-dasharray:none;stroke-opacity:1" transform="matrix(1.3333 0 0 -1.3333 8608.1 204.02)"/></g><text xml:space="preserve" transform="translate(60.5 219.93)scale(1.3333)"><tspan x="0" y="0" style="font-variant:normal;font-weight:700;font-stretch:normal;font-size:30.2592px;font-family:Rockwell;writing-mode:lr-tb;fill:#fff;fill-opacity:1;fill-rule:nonzero;stroke:none">+</tspan></text><path d="M0 0v7.019h-4.004V0h-6.989v-4.019h6.989v-7.003H0v7.003h6.988V0Z" style="fill:none;stroke:#231f20;stroke-width:1.71;stroke-linecap:butt;stroke-linejoin:miter;stroke-miterlimit:10;stroke-dasharray:none;stroke-opacity:1" transform="matrix(1.3333 0 0 -1.3333 77.8 202.34)"/></svg>