<svg xmlns="http://www.w3.org/2000/svg" width="296" height="466.67" viewBox="0 0 296 466.67"><defs><clipPath id="a" clipPathUnits="userSpaceOnUse"><path d="M-196.47-.197H25.526V-350.2H-196.47Z"/></clipPath></defs><path d="M0 0c-10.449 0-18.95 8.501-18.95 18.95v299.82c0 10.45 8.501 18.95 18.95 18.95h172.1c10.45 0 18.95-8.5 18.95-18.95V18.95C191.05 8.501 182.55 0 172.1 0Z" style="fill:#231f20;fill-opacity:1;fill-rule:nonzero;stroke:none" transform="matrix(1.3333 0 0 -1.3333 32.5 458.03)"/><path d="M0 0h-172.1c-13.76 0-24.95-11.192-24.95-24.95v-299.82c0-13.76 11.19-24.95 24.95-24.95H0c13.758 0 24.95 11.19 24.95 24.95v299.82C24.95-11.192 13.758 0 0 0m0-12c7.15 0 12.95-5.8 12.95-12.95v-299.82c0-7.15-5.8-12.95-12.95-12.95h-172.1c-7.15 0-12.95 5.8-12.95 12.95v299.82c0 7.15 5.8 12.95 12.95 12.95z" clip-path="url(#a)" style="fill:#fff;fill-opacity:1;fill-rule:nonzero;stroke:none" transform="matrix(1.3333 0 0 -1.3333 262 -.263)"/><path d="M0 0v-119.95c24.71 15.69 49.676 40.537 70.271 72.051C80.632-32.047 88.999-15.859 95.329 0H9.417Z" style="fill:#13aa4a;fill-opacity:1;fill-rule:nonzero;stroke:none" transform="matrix(1.3333 0 0 -1.3333 147.4 230.21)"/><path d="M0 0c-24.541-57.127-22.9-111.08 7.603-131.02 21.037-13.75 51.375-8.43 82.109 11.07V0Z" style="fill:#ffce16;fill-opacity:1;fill-rule:nonzero;stroke:none" transform="matrix(1.3333 0 0 -1.3333 27.8 230.21)"/><path d="M0 0c-23.679-15.758-47.414-39.83-67.139-70.008-9.058-13.858-16.59-27.973-22.573-41.902H0Z" style="fill:#d32426;fill-opacity:1;fill-rule:nonzero;stroke:none" transform="matrix(1.3333 0 0 -1.3333 147.4 81.002)"/><path d="M0 0c-21.745 14.214-53.437 8.047-85.231-13.112V-125.02h95.329C32-70.149 29.433-19.239 0 0" style="fill:#293492;fill-opacity:1;fill-rule:nonzero;stroke:none" transform="matrix(1.3333 0 0 -1.3333 261.1 63.52)"/><path d="M0 0c-46.21-70.71-114.43-107.92-152.38-83.12-37.94 24.8-31.24 102.22 14.97 172.92s114.43 107.92 152.37 83.12S46.21 70.7 0 0Z" style="fill:none;stroke:#fff;stroke-width:8.608;stroke-linecap:butt;stroke-linejoin:miter;stroke-miterlimit:10;stroke-dasharray:none;stroke-opacity:1" transform="matrix(1.3333 0 0 -1.3333 239.6 294.08)"/><path d="M0 0v-21.751C4.481-18.907 9.008-14.4 12.743-8.686c1.879 2.875 3.396 5.81 4.544 8.686H1.708Z" style="fill:#13aa4a;fill-opacity:1;fill-rule:nonzero;stroke:none" transform="matrix(1.3333 0 0 -1.3333 53.9 60.193)"/><path d="M0 0c-4.45-10.359-4.153-20.143 1.379-23.759 3.814-2.492 9.316-1.529 14.889 2.008V0Z" style="fill:#ffce16;fill-opacity:1;fill-rule:nonzero;stroke:none" transform="matrix(1.3333 0 0 -1.3333 32.2 60.193)"/><path d="M0 0c-4.294-2.858-8.598-7.223-12.175-12.695a50 50 0 0 1-4.093-7.598H0Z" style="fill:#d32426;fill-opacity:1;fill-rule:nonzero;stroke:none" transform="matrix(1.3333 0 0 -1.3333 53.9 33.135)"/><path d="M0 0c-3.943 2.578-9.69 1.459-15.455-2.378v-20.293H1.831C5.803-12.721 5.337-3.489 0 0" style="fill:#293492;fill-opacity:1;fill-rule:nonzero;stroke:none" transform="matrix(1.3333 0 0 -1.3333 74.5 29.965)"/><path d="M0 0c-8.38-12.822-20.75-19.57-27.632-15.073-6.88 4.497-5.665 18.537 2.715 31.357s20.75 19.57 27.63 15.073S8.38 12.82 0 0Z" style="fill:none;stroke:#fff;stroke-width:1.561;stroke-linecap:butt;stroke-linejoin:miter;stroke-miterlimit:10;stroke-dasharray:none;stroke-opacity:1" transform="matrix(1.3333 0 0 -1.3333 70.6 71.774)"/><path d="M0 0v-21.751c4.481 2.844 9.008 7.35 12.743 13.065 1.879 2.875 3.396 5.81 4.544 8.686H1.708Z" style="fill:#13aa4a;fill-opacity:1;fill-rule:nonzero;stroke:none" transform="matrix(1.3333 0 0 -1.3333 244.6 402.83)"/><path d="M0 0c-4.45-10.359-4.153-20.143 1.379-23.759 3.814-2.493 9.316-1.529 14.889 2.008V0Z" style="fill:#ffce16;fill-opacity:1;fill-rule:nonzero;stroke:none" transform="matrix(1.3333 0 0 -1.3333 222.9 402.83)"/><path d="M0 0c-4.294-2.858-8.598-7.223-12.175-12.695a50 50 0 0 1-4.093-7.598H0Z" style="fill:#d32426;fill-opacity:1;fill-rule:nonzero;stroke:none" transform="matrix(1.3333 0 0 -1.3333 244.6 375.77)"/><path d="M0 0c-3.943 2.578-9.69 1.459-15.455-2.378v-20.293H1.831C5.803-12.721 5.337-3.489 0 0" style="fill:#293492;fill-opacity:1;fill-rule:nonzero;stroke:none" transform="matrix(1.3333 0 0 -1.3333 265.2 372.6)"/><path d="M0 0c-8.38-12.822-20.75-19.57-27.632-15.073-6.88 4.497-5.665 18.537 2.715 31.357s20.75 19.57 27.63 15.073S8.38 12.821 0 0Z" style="fill:none;stroke:#fff;stroke-width:1.561;stroke-linecap:butt;stroke-linejoin:miter;stroke-miterlimit:10;stroke-dasharray:none;stroke-opacity:1" transform="matrix(1.3333 0 0 -1.3333 261.3 414.41)"/></svg>