<svg xmlns="http://www.w3.org/2000/svg" width="296" height="466.67" viewBox="0 0 296 466.67"><defs><clipPath id="a" clipPathUnits="userSpaceOnUse"><path d="M-196.9.142H25.095V-349.86H-196.9Z"/></clipPath><clipPath id="c" clipPathUnits="userSpaceOnUse"><path d="M-1.357-43.016H66.35v56.607H-1.357Z"/></clipPath><clipPath id="b" clipPathUnits="userSpaceOnUse"><path d="M7900 0h296v466.67h-296z"/></clipPath><clipPath id="e" clipPathUnits="userSpaceOnUse"><path d="M66.349 13.591H-1.356v-56.608H66.35Z"/></clipPath><clipPath id="d" clipPathUnits="userSpaceOnUse"><path d="M7900 0h296v466.67h-296z"/></clipPath><clipPath id="g" clipPathUnits="userSpaceOnUse"><path d="M-.856-27.118h23.623V8.568H-.856Z"/></clipPath><clipPath id="f" clipPathUnits="userSpaceOnUse"><path d="M7900 0h296v466.67h-296z"/></clipPath><clipPath id="i" clipPathUnits="userSpaceOnUse"><path d="M-.855-27.118h23.622V8.567H-.855Z"/></clipPath><clipPath id="h" clipPathUnits="userSpaceOnUse"><path d="M7900 0h296v466.67h-296z"/></clipPath></defs><path d="M0 0c-10.45 0-18.951 8.501-18.951 18.951V318.76c0 10.45 8.501 18.96 18.951 18.96h172.1c10.45 0 18.95-8.51 18.95-18.96V18.951C191.05 8.501 182.55 0 172.1 0Z" style="fill:#ffce16;fill-opacity:1;fill-rule:nonzero;stroke:none" transform="matrix(1.3333 0 0 -1.3333 33.1 458.48)"/><path d="M0 0h-172.1c-13.76 0-24.95-11.193-24.95-24.951V-324.76c0-13.76 11.19-24.96 24.95-24.96H0c13.758 0 24.951 11.2 24.951 24.96v299.809C24.951-11.193 13.758 0 0 0m0-12c7.153 0 12.951-5.798 12.951-12.951V-324.76c0-7.16-5.798-12.96-12.951-12.96h-172.1c-7.15 0-12.95 5.8-12.95 12.96v299.809c0 7.153 5.8 12.951 12.95 12.951z" clip-path="url(#a)" style="fill:#fff;fill-opacity:1;fill-rule:nonzero;stroke:none" transform="matrix(1.3333 0 0 -1.3333 262.5 .19)"/><g clip-path="url(#b)" transform="translate(-7900)"><text xml:space="preserve" clip-path="url(#c)" transform="translate(7924.7 79.772)scale(1.3333)"><tspan x="0" y="0" style="font-variant:normal;font-weight:700;font-stretch:normal;font-size:48px;font-family:Rockwell;writing-mode:lr-tb;fill:#000;fill-opacity:1;fill-rule:nonzero;stroke:none">+2</tspan></text><path d="M0 0v11.133h-6.352V0h-11.085v-6.375h11.085v-11.109H0v11.109h11.086V0Z" style="fill:none;stroke:#000;stroke-width:2.713;stroke-linecap:butt;stroke-linejoin:miter;stroke-miterlimit:10;stroke-dasharray:none;stroke-opacity:1" transform="matrix(1.3333 0 0 -1.3333 7952.1 51.866)"/><path d="M0 0q-3.293 2.637-9.035 2.637-6.399 0-9.61-3.211t-3.351-9.75l7.336-.281q.234 3.89 1.441 5.613 1.207 1.722 3.692 1.722 1.921 0 2.953-.914 1.03-.913 1.031-2.695 0-1.804-1.301-3.516-1.3-1.71-3.785-3.539-4.71-3.492-7.137-6.035-2.425-2.542-3.55-5.59t-1.125-7.757H3.293l.422 10.617h-7.149v-4.571h-10.664q.68 3.797 7.008 7.688 3.89 2.344 5.93 3.973t3.246 3.621 1.207 4.687Q3.293-2.636 0 0Z" style="fill:none;stroke:#000;stroke-width:2.713;stroke-linecap:butt;stroke-linejoin:miter;stroke-miterlimit:10;stroke-dasharray:none;stroke-opacity:1" transform="matrix(1.3333 0 0 -1.3333 8003.8 35.35)"/></g><text xml:space="preserve" transform="translate(27.4 77.105)scale(1.3333)"><tspan x="0" y="0" style="font-variant:normal;font-weight:700;font-stretch:normal;font-size:48px;font-family:Rockwell;writing-mode:lr-tb;fill:#fff;fill-opacity:1;fill-rule:nonzero;stroke:none">+2</tspan></text><path d="M0 0v11.133h-6.352V0h-11.085v-6.375h11.085v-11.109H0v11.109h11.086V0Z" style="fill:none;stroke:#231f20;stroke-width:2.713;stroke-linecap:butt;stroke-linejoin:miter;stroke-miterlimit:10;stroke-dasharray:none;stroke-opacity:1" transform="matrix(1.3333 0 0 -1.3333 54.8 49.199)"/><path d="M0 0q-3.293 2.637-9.035 2.637-6.399 0-9.61-3.211t-3.351-9.75l7.336-.281q.234 3.89 1.441 5.613 1.207 1.722 3.692 1.722 1.921 0 2.953-.914 1.03-.913 1.031-2.695 0-1.804-1.301-3.516-1.3-1.71-3.785-3.539-4.71-3.492-7.137-6.035-2.425-2.542-3.55-5.59t-1.125-7.757H3.293l.422 10.617h-7.149v-4.571h-10.664q.68 3.797 7.008 7.688 3.89 2.344 5.93 3.973t3.246 3.621 1.207 4.687Q3.293-2.636 0 0Z" style="fill:none;stroke:#231f20;stroke-width:2.713;stroke-linecap:butt;stroke-linejoin:miter;stroke-miterlimit:10;stroke-dasharray:none;stroke-opacity:1" transform="matrix(1.3333 0 0 -1.3333 106.4 32.684)"/><path d="M0 0c46.209 70.703 52.909 148.12 14.964 172.92S-91.2 160.51-137.41 89.805c-46.21-70.702-52.91-148.122-14.96-172.921C-114.43-107.92-46.209-70.703 0 0Z" style="fill:none;stroke:#fff;stroke-width:8.608;stroke-linecap:butt;stroke-linejoin:miter;stroke-miterlimit:10;stroke-dasharray:none;stroke-opacity:1" transform="matrix(1.3333 0 0 -1.3333 241.5 294.08)"/><g clip-path="url(#d)" transform="translate(-7900)"><text xml:space="preserve" clip-path="url(#e)" transform="translate(8169.6 387.3)scale(-1.3333)"><tspan x="0" y="0" style="font-variant:normal;font-weight:700;font-stretch:normal;font-size:48px;font-family:Rockwell;writing-mode:lr-tb;fill:#000;fill-opacity:1;fill-rule:nonzero;stroke:none">+2</tspan></text><path d="M0 0v-11.133h6.352V0h11.085v6.375H6.352v11.109H0V6.375h-11.086V0Z" style="fill:none;stroke:#000;stroke-width:2.713;stroke-linecap:butt;stroke-linejoin:miter;stroke-miterlimit:10;stroke-dasharray:none;stroke-opacity:1" transform="matrix(1.3333 0 0 -1.3333 8142.2 415.21)"/><path d="M0 0q3.293-2.637 9.035-2.637 6.399 0 9.61 3.211 3.21 3.212 3.351 9.75l-7.336.281q-.235-3.89-1.441-5.613Q12.012 3.27 9.527 3.27q-1.921 0-2.953.914-1.03.913-1.031 2.695 0 1.804 1.301 3.516 1.3 1.71 3.785 3.539 4.71 3.492 7.137 6.035 2.425 2.542 3.55 5.59t1.125 7.757H-3.293l-.422-10.617h7.149v4.571h10.664q-.68-3.798-7.008-7.688-3.89-2.343-5.93-3.973-2.038-1.629-3.246-3.621-1.207-1.992-1.207-4.687Q-3.293 2.637 0 0Z" style="fill:none;stroke:#000;stroke-width:2.713;stroke-linecap:butt;stroke-linejoin:miter;stroke-miterlimit:10;stroke-dasharray:none;stroke-opacity:1" transform="matrix(1.3333 0 0 -1.3333 8090.5 431.73)"/></g><text xml:space="preserve" transform="translate(272.3 384.64)scale(-1.3333)"><tspan x="0" y="0" style="font-variant:normal;font-weight:700;font-stretch:normal;font-size:48px;font-family:Rockwell;writing-mode:lr-tb;fill:#fff;fill-opacity:1;fill-rule:nonzero;stroke:none">+2</tspan></text><path d="M0 0v-11.133h6.352V0h11.085v6.375H6.352v11.109H0V6.375h-11.086V0Z" style="fill:none;stroke:#231f20;stroke-width:2.713;stroke-linecap:butt;stroke-linejoin:miter;stroke-miterlimit:10;stroke-dasharray:none;stroke-opacity:1" transform="matrix(1.3333 0 0 -1.3333 244.9 412.54)"/><path d="M0 0q3.293-2.637 9.035-2.637 6.399 0 9.61 3.211 3.21 3.212 3.351 9.75l-7.336.281q-.235-3.89-1.441-5.613Q12.012 3.27 9.527 3.27q-1.921 0-2.953.914-1.03.913-1.031 2.695 0 1.804 1.301 3.516 1.3 1.71 3.785 3.539 4.71 3.492 7.137 6.035 2.425 2.542 3.55 5.59t1.125 7.757H-3.293l-.422-10.617h7.149v4.571h10.664q-.68-3.798-7.008-7.688-3.89-2.343-5.93-3.973-2.038-1.629-3.246-3.621-1.207-1.992-1.207-4.687Q-3.293 2.637 0 0Z" style="fill:none;stroke:#231f20;stroke-width:2.713;stroke-linecap:butt;stroke-linejoin:miter;stroke-miterlimit:10;stroke-dasharray:none;stroke-opacity:1" transform="matrix(1.3333 0 0 -1.3333 193.2 429.06)"/><g clip-path="url(#d)" transform="translate(-7900)"><path d="M0 0h-32.569a8.257 8.257 0 0 0-8.257 8.257v66.946a8.257 8.257 0 0 0 8.257 8.257H0a8.257 8.257 0 0 0 8.257-8.257V8.257A8.257 8.257 0 0 0 0 0" style="fill:#000;fill-opacity:1;fill-rule:nonzero;stroke:#000;stroke-width:3;stroke-linecap:butt;stroke-linejoin:miter;stroke-miterlimit:10;stroke-dasharray:none;stroke-opacity:1" transform="matrix(1.3333 0 0 -1.3333 8082 280.47)"/><path d="M0 0h-32.569a8.257 8.257 0 0 0-8.257 8.257v66.946a8.257 8.257 0 0 0 8.257 8.257H0a8.257 8.257 0 0 0 8.257-8.257V8.257A8.257 8.257 0 0 0 0 0" style="fill:#000;fill-opacity:1;fill-rule:nonzero;stroke:#000;stroke-width:3;stroke-linecap:butt;stroke-linejoin:miter;stroke-miterlimit:10;stroke-dasharray:none;stroke-opacity:1" transform="matrix(1.3333 0 0 -1.3333 8044.8 321.48)"/></g><path d="M0 0h-32.569a8.257 8.257 0 0 0-8.257 8.257v66.946a8.257 8.257 0 0 0 8.257 8.257H0a8.257 8.257 0 0 0 8.257-8.257V8.257A8.257 8.257 0 0 0 0 0" style="fill:#fff;fill-opacity:1;fill-rule:nonzero;stroke:#231f20;stroke-width:3;stroke-linecap:butt;stroke-linejoin:miter;stroke-miterlimit:10;stroke-dasharray:none;stroke-opacity:1" transform="matrix(1.3333 0 0 -1.3333 188.7 268.47)"/><path d="M0 0h-32.569a8.257 8.257 0 0 0-8.257 8.257v66.946a8.257 8.257 0 0 0 8.257 8.257H0a8.257 8.257 0 0 0 8.257-8.257V8.257A8.257 8.257 0 0 0 0 0" style="fill:#fff;fill-opacity:1;fill-rule:nonzero;stroke:#231f20;stroke-width:3;stroke-linecap:butt;stroke-linejoin:miter;stroke-miterlimit:10;stroke-dasharray:none;stroke-opacity:1" transform="matrix(1.3333 0 0 -1.3333 151.5 309.48)"/><g clip-path="url(#f)" transform="translate(-7900)"><text xml:space="preserve" clip-path="url(#g)" transform="translate(7991.6 192.81)scale(1.3333)"><tspan x="0" y="0" style="font-variant:normal;font-weight:700;font-stretch:normal;font-size:30.2592px;font-family:Rockwell;writing-mode:lr-tb;fill:#000;fill-opacity:1;fill-rule:nonzero;stroke:none">+</tspan></text><path d="M0 0v7.019h-4.004V0h-6.989v-4.019h6.989v-7.003H0v7.003h6.988V0Z" style="fill:none;stroke:#000;stroke-width:1.71;stroke-linecap:butt;stroke-linejoin:miter;stroke-miterlimit:10;stroke-dasharray:none;stroke-opacity:1" transform="matrix(1.3333 0 0 -1.3333 8008.9 175.22)"/></g><text xml:space="preserve" transform="translate(93.3 191.13)scale(1.3333)"><tspan x="0" y="0" style="font-variant:normal;font-weight:700;font-stretch:normal;font-size:30.2592px;font-family:Rockwell;writing-mode:lr-tb;fill:#fff;fill-opacity:1;fill-rule:nonzero;stroke:none">+</tspan></text><path d="M0 0v7.019h-4.004V0h-6.989v-4.019h6.989v-7.003H0v7.003h6.988V0Z" style="fill:none;stroke:#231f20;stroke-width:1.71;stroke-linecap:butt;stroke-linejoin:miter;stroke-miterlimit:10;stroke-dasharray:none;stroke-opacity:1" transform="matrix(1.3333 0 0 -1.3333 110.5 173.53)"/><g clip-path="url(#h)" transform="translate(-7900)"><text xml:space="preserve" clip-path="url(#i)" transform="translate(8065.3 316.05)scale(1.3333)"><tspan x="0" y="0" style="font-variant:normal;font-weight:700;font-stretch:normal;font-size:30.2592px;font-family:Rockwell;writing-mode:lr-tb;fill:#000;fill-opacity:1;fill-rule:nonzero;stroke:none">+</tspan></text><path d="M0 0v7.019h-4.004V0h-6.989v-4.019h6.989v-7.003H0v7.003h6.988V0Z" style="fill:none;stroke:#000;stroke-width:1.71;stroke-linecap:butt;stroke-linejoin:miter;stroke-miterlimit:10;stroke-dasharray:none;stroke-opacity:1" transform="matrix(1.3333 0 0 -1.3333 8082.5 298.46)"/></g><text xml:space="preserve" transform="translate(166.9 314.37)scale(1.3333)"><tspan x="0" y="0" style="font-variant:normal;font-weight:700;font-stretch:normal;font-size:30.2592px;font-family:Rockwell;writing-mode:lr-tb;fill:#fff;fill-opacity:1;fill-rule:nonzero;stroke:none">+</tspan></text><path d="M0 0v7.019h-4.004V0h-6.989v-4.019h6.989v-7.003H0v7.003h6.988V0Z" style="fill:none;stroke:#231f20;stroke-width:1.71;stroke-linecap:butt;stroke-linejoin:miter;stroke-miterlimit:10;stroke-dasharray:none;stroke-opacity:1" transform="matrix(1.3333 0 0 -1.3333 184.2 296.78)"/></svg>