<svg xmlns="http://www.w3.org/2000/svg" width="296" height="466.67" viewBox="0 0 296 466.67"><defs><clipPath id="a" clipPathUnits="userSpaceOnUse"><path d="M-197.19.142H24.813V-349.86H-197.19Z"/></clipPath><clipPath id="c" clipPathUnits="userSpaceOnUse"><path d="M-3-141.87h106.78V43.781H-3Z"/></clipPath><clipPath id="b" clipPathUnits="userSpaceOnUse"><path d="M4424 0h296v466.67h-296z"/></clipPath><clipPath id="e" clipPathUnits="userSpaceOnUse"><path d="M-1.357-64.155h48.289v83.953H-1.357Z"/></clipPath><clipPath id="d" clipPathUnits="userSpaceOnUse"><path d="M4424 0h296v466.67h-296z"/></clipPath><clipPath id="g" clipPathUnits="userSpaceOnUse"><path d="M46.932 19.799H-1.356v-83.954h48.288Z"/></clipPath><clipPath id="f" clipPathUnits="userSpaceOnUse"><path d="M4424 0h296v466.67h-296z"/></clipPath></defs><path d="M0 0c-10.45 0-18.951 8.501-18.951 18.951V318.76c0 10.45 8.501 18.96 18.951 18.96h172.1c10.45 0 18.95-8.51 18.95-18.96V18.951C191.05 8.501 182.55 0 172.1 0Z" style="fill:#ffce16;fill-opacity:1;fill-rule:nonzero;stroke:none" transform="matrix(1.3333 0 0 -1.3333 33.5 458.48)"/><path d="M0 0h-172.1c-13.76 0-24.95-11.193-24.95-24.951V-324.76c0-13.76 11.19-24.96 24.95-24.96H0c13.758 0 24.951 11.2 24.951 24.96v299.809C24.951-11.193 13.758 0 0 0m0-12c7.153 0 12.951-5.798 12.951-12.951V-324.76c0-7.16-5.798-12.96-12.951-12.96h-172.1c-7.15 0-12.95 5.8-12.95 12.96v299.809c0 7.153 5.8 12.951 12.95 12.951z" clip-path="url(#a)" style="fill:#fff;fill-opacity:1;fill-rule:nonzero;stroke:none" transform="matrix(1.3333 0 0 -1.3333 262.9 .19)"/><g clip-path="url(#b)" transform="translate(-4424)"><text xml:space="preserve" clip-path="url(#c)" transform="translate(4495.4 319.7)scale(1.3333)"><tspan x="0" y="0" style="font-variant:normal;font-weight:700;font-stretch:normal;font-size:160px;font-family:Rockwell;writing-mode:lr-tb;fill:#000;fill-opacity:1;fill-rule:nonzero;stroke:none">1</tspan></text><path d="M0 0v97.578h-45.938V77.422h17.266V0h-16.172v-20.156h60V0Z" style="fill:none;stroke:#000;stroke-width:6;stroke-linecap:butt;stroke-linejoin:miter;stroke-miterlimit:10;stroke-dasharray:none;stroke-opacity:1" transform="matrix(1.3333 0 0 -1.3333 4583.3 292.82)"/></g><text xml:space="preserve" transform="translate(78.1 315.7)scale(1.3333)"><tspan x="0" y="0" style="font-variant:normal;font-weight:700;font-stretch:normal;font-size:160px;font-family:Rockwell;writing-mode:lr-tb;fill:#fff;fill-opacity:1;fill-rule:nonzero;stroke:none">1</tspan></text><path d="M0 0v97.578h-45.938V77.422h17.266V0h-16.172v-20.156h60V0Z" style="fill:none;stroke:#231f20;stroke-width:6;stroke-linecap:butt;stroke-linejoin:miter;stroke-miterlimit:10;stroke-dasharray:none;stroke-opacity:1" transform="matrix(1.3333 0 0 -1.3333 166 288.82)"/><g clip-path="url(#d)" transform="translate(-4424)"><text xml:space="preserve" clip-path="url(#e)" transform="translate(4444.3 107.77)scale(1.3333)"><tspan x="0" y="0" style="font-variant:normal;font-weight:700;font-stretch:normal;font-size:72.3553px;font-family:Rockwell;writing-mode:lr-tb;fill:#000;fill-opacity:1;fill-rule:nonzero;stroke:none">1</tspan></text><path d="M0 0v44.126h-20.774v-9.114h7.808V0h-7.313v-9.115H6.854V0Z" style="fill:none;stroke:#000;stroke-width:2.713;stroke-linecap:butt;stroke-linejoin:miter;stroke-miterlimit:10;stroke-dasharray:none;stroke-opacity:1" transform="matrix(1.3333 0 0 -1.3333 4484.1 95.618)"/></g><text xml:space="preserve" transform="translate(27 103.77)scale(1.3333)"><tspan x="0" y="0" style="font-variant:normal;font-weight:700;font-stretch:normal;font-size:72.3553px;font-family:Rockwell;writing-mode:lr-tb;fill:#fff;fill-opacity:1;fill-rule:nonzero;stroke:none">1</tspan></text><path d="M0 0v44.126h-20.774v-9.114h7.808V0h-7.313v-9.115H6.854V0Z" style="fill:none;stroke:#231f20;stroke-width:2.713;stroke-linecap:butt;stroke-linejoin:miter;stroke-miterlimit:10;stroke-dasharray:none;stroke-opacity:1" transform="matrix(1.3333 0 0 -1.3333 66.8 91.618)"/><g clip-path="url(#f)" transform="translate(-4424)"><text xml:space="preserve" clip-path="url(#g)" transform="translate(4686.1 367.77)scale(-1.3333)"><tspan x="0" y="0" style="font-variant:normal;font-weight:700;font-stretch:normal;font-size:72.3553px;font-family:Rockwell;writing-mode:lr-tb;fill:#000;fill-opacity:1;fill-rule:nonzero;stroke:none">1</tspan></text><path d="M0 0v-44.126h20.774v9.114h-7.808V0h7.313v9.115H-6.854V0Z" style="fill:none;stroke:#000;stroke-width:2.713;stroke-linecap:butt;stroke-linejoin:miter;stroke-miterlimit:10;stroke-dasharray:none;stroke-opacity:1" transform="matrix(1.3333 0 0 -1.3333 4646.3 379.93)"/></g><text xml:space="preserve" transform="translate(268.7 363.77)scale(-1.3333)"><tspan x="0" y="0" style="font-variant:normal;font-weight:700;font-stretch:normal;font-size:72.3553px;font-family:Rockwell;writing-mode:lr-tb;fill:#fff;fill-opacity:1;fill-rule:nonzero;stroke:none">1</tspan></text><path d="M0 0v-44.126h20.774v9.114h-7.808V0h7.313v9.115H-6.854V0Z" style="fill:none;stroke:#231f20;stroke-width:2.713;stroke-linecap:butt;stroke-linejoin:miter;stroke-miterlimit:10;stroke-dasharray:none;stroke-opacity:1" transform="matrix(1.3333 0 0 -1.3333 229 375.93)"/><path d="M0 0c46.209 70.703 52.909 148.12 14.964 172.92S-91.2 160.51-137.41 89.805c-46.21-70.702-52.91-148.122-14.96-172.921C-114.43-107.92-46.209-70.703 0 0Z" style="fill:none;stroke:#fff;stroke-width:8.608;stroke-linecap:butt;stroke-linejoin:miter;stroke-miterlimit:10;stroke-dasharray:none;stroke-opacity:1" transform="matrix(1.3333 0 0 -1.3333 241.1 294.08)"/></svg>