<svg xmlns="http://www.w3.org/2000/svg" width="296" height="466.67" viewBox="0 0 296 466.67"><defs><clipPath id="a" clipPathUnits="userSpaceOnUse"><path d="M-197.18.142H24.822V-349.86H-197.18Z"/></clipPath><clipPath id="c" clipPathUnits="userSpaceOnUse"><path d="M-3-141.87h106.78V43.781H-3Z"/></clipPath><clipPath id="b" clipPathUnits="userSpaceOnUse"><path d="M6004 0h296v466.67h-296z"/></clipPath><clipPath id="e" clipPathUnits="userSpaceOnUse"><path d="M-1.358-64.155h48.29v83.953h-48.29Z"/></clipPath><clipPath id="d" clipPathUnits="userSpaceOnUse"><path d="M6004 0h296v466.67h-296z"/></clipPath><clipPath id="g" clipPathUnits="userSpaceOnUse"><path d="M46.932 19.799H-1.356v-83.954h48.288z"/></clipPath><clipPath id="f" clipPathUnits="userSpaceOnUse"><path d="M6004 0h296v466.67h-296z"/></clipPath></defs><path d="M0 0c-10.45 0-18.951 8.501-18.951 18.95v299.81c0 10.45 8.501 18.96 18.951 18.96h172.1c10.45 0 18.95-8.51 18.95-18.96V18.95C191.05 8.501 182.55 0 172.1 0Z" style="fill:#ffce16;fill-opacity:1;fill-rule:nonzero;stroke:none" transform="matrix(1.3333 0 0 -1.3333 33.4 458.48)"/><path d="M0 0h-172.1c-13.76 0-24.95-11.193-24.95-24.951V-324.76c0-13.76 11.19-24.96 24.95-24.96H0c13.758 0 24.951 11.2 24.951 24.96v299.809C24.951-11.193 13.758 0 0 0m0-12c7.153 0 12.951-5.798 12.951-12.951V-324.76c0-7.16-5.798-12.96-12.951-12.96h-172.1c-7.15 0-12.95 5.8-12.95 12.96v299.809c0 7.153 5.8 12.951 12.95 12.951z" clip-path="url(#a)" style="fill:#fff;fill-opacity:1;fill-rule:nonzero;stroke:none" transform="matrix(1.3333 0 0 -1.3333 262.9 .19)"/><g clip-path="url(#b)" transform="translate(-6004)"><text xml:space="preserve" clip-path="url(#c)" transform="translate(6075.4 319.7)scale(1.3333)"><tspan x="0" y="0" style="font-variant:normal;font-weight:700;font-stretch:normal;font-size:160px;font-family:Rockwell;writing-mode:lr-tb;fill:#000;fill-opacity:1;fill-rule:nonzero;stroke:none">6</tspan></text><path d="M0 0q-24.22 0-36.68-15.781t-12.461-46.328q0-30.393 11.524-44.841 11.521-14.46 35.82-14.46c12.708 0 22.682 3.65 29.922 10.94q10.859 10.936 10.859 29.845 0 10.547-4.804 18.945T20.742-48.398Q12.109-43.517.937-43.516q-12.344 0-21.796-6.093 1.014 14.373 6.132 22.148 5.117 7.774 13.555 7.774 11.407 0 15.391-14.688l23.203 2.031Q33.592 0 0 0Zm-4.375-64.453q7.734 0 12.109-4.649 4.374-4.648 4.375-13.164 0-9.063-3.906-14.023-3.907-4.962-10.156-4.961-9.61 0-14.336 7.578-4.727 7.577-4.727 24.844 9.297 4.374 16.641 4.375z" style="fill:none;stroke:#000;stroke-width:6;stroke-linecap:butt;stroke-linejoin:miter;stroke-miterlimit:10;stroke-dasharray:none;stroke-opacity:1" transform="matrix(1.3333 0 0 -1.3333 6149.1 159.91)"/></g><text xml:space="preserve" transform="translate(78.1 315.7)scale(1.3333)"><tspan x="0" y="0" style="font-variant:normal;font-weight:700;font-stretch:normal;font-size:160px;font-family:Rockwell;writing-mode:lr-tb;fill:#fff;fill-opacity:1;fill-rule:nonzero;stroke:none">6</tspan></text><path d="M0 0q-24.22 0-36.68-15.781t-12.461-46.328q0-30.393 11.524-44.841 11.521-14.46 35.82-14.46c12.708 0 22.682 3.65 29.922 10.94q10.859 10.936 10.859 29.845 0 10.547-4.804 18.945T20.742-48.398Q12.109-43.517.937-43.516q-12.344 0-21.796-6.093 1.014 14.373 6.132 22.148 5.117 7.774 13.555 7.774 11.407 0 15.391-14.688l23.203 2.031Q33.592 0 0 0Zm-4.375-64.453q7.734 0 12.109-4.649 4.374-4.648 4.375-13.164 0-9.063-3.906-14.023-3.907-4.962-10.156-4.961-9.61 0-14.336 7.578-4.727 7.577-4.727 24.844 9.297 4.374 16.641 4.375z" style="fill:none;stroke:#231f20;stroke-width:6;stroke-linecap:butt;stroke-linejoin:miter;stroke-miterlimit:10;stroke-dasharray:none;stroke-opacity:1" transform="matrix(1.3333 0 0 -1.3333 151.7 155.91)"/><g clip-path="url(#d)" transform="translate(-6004)"><text xml:space="preserve" clip-path="url(#e)" transform="translate(6024.3 107.77)scale(1.3333)"><tspan x="0" y="0" style="font-variant:normal;font-weight:700;font-stretch:normal;font-size:72.3553px;font-family:Rockwell;writing-mode:lr-tb;fill:#000;fill-opacity:1;fill-rule:nonzero;stroke:none">6</tspan></text><path d="M0 0q-10.953 0-16.588-7.137t-5.635-20.95q0-13.744 5.211-20.279 5.21-6.537 16.2-6.536 8.619 0 13.531 4.946 4.91 4.945 4.91 13.496 0 4.769-2.173 8.567T9.38-21.887Q5.474-19.679.424-19.679q-5.583 0-9.858-2.756.46 6.501 2.774 10.017t6.13 3.515q5.158 0 6.96-6.642l10.493.919Q15.191 0 0 0Zm-1.979-29.147q3.498 0 5.476-2.102 1.979-2.103 1.979-5.953 0-4.099-1.767-6.342t-4.593-2.243q-4.344 0-6.482 3.427t-2.138 11.235q4.204 1.977 7.525 1.978z" style="fill:none;stroke:#000;stroke-width:2.713;stroke-linecap:butt;stroke-linejoin:miter;stroke-miterlimit:10;stroke-dasharray:none;stroke-opacity:1" transform="matrix(1.3333 0 0 -1.3333 6057.6 35.51)"/></g><text xml:space="preserve" transform="translate(27 103.77)scale(1.3333)"><tspan x="0" y="0" style="font-variant:normal;font-weight:700;font-stretch:normal;font-size:72.3553px;font-family:Rockwell;writing-mode:lr-tb;fill:#fff;fill-opacity:1;fill-rule:nonzero;stroke:none">6</tspan></text><path d="M0 0q-10.953 0-16.588-7.137t-5.635-20.95q0-13.744 5.211-20.279 5.21-6.537 16.2-6.536 8.619 0 13.531 4.946 4.91 4.945 4.91 13.496 0 4.769-2.173 8.567T9.38-21.887Q5.474-19.679.424-19.679q-5.583 0-9.858-2.756.46 6.501 2.774 10.017t6.13 3.515q5.158 0 6.96-6.642l10.493.919Q15.191 0 0 0Zm-1.979-29.147q3.498 0 5.476-2.102 1.979-2.103 1.979-5.953 0-4.099-1.767-6.342t-4.593-2.243q-4.344 0-6.482 3.427t-2.138 11.235q4.204 1.977 7.525 1.978z" style="fill:none;stroke:#231f20;stroke-width:2.713;stroke-linecap:butt;stroke-linejoin:miter;stroke-miterlimit:10;stroke-dasharray:none;stroke-opacity:1" transform="matrix(1.3333 0 0 -1.3333 60.3 31.51)"/><g clip-path="url(#f)" transform="translate(-6004)"><text xml:space="preserve" clip-path="url(#g)" transform="translate(6266.1 367.77)scale(-1.3333)"><tspan x="0" y="0" style="font-variant:normal;font-weight:700;font-stretch:normal;font-size:72.3553px;font-family:Rockwell;writing-mode:lr-tb;fill:#000;fill-opacity:1;fill-rule:nonzero;stroke:none">6</tspan></text><path d="M0 0q10.953 0 16.588 7.137t5.635 20.95q0 13.744-5.211 20.279-5.21 6.537-16.2 6.536-8.619 0-13.531-4.946-4.91-4.945-4.91-13.496 0-4.769 2.173-8.567t6.076-6.006q3.906-2.208 8.956-2.208 5.583 0 9.858 2.756-.46-6.501-2.774-10.017T.53 8.903q-5.158 0-6.96 6.642l-10.493-.919Q-15.191 0 0 0Zm1.979 29.147q-3.498 0-5.476 2.102-1.979 2.103-1.979 5.953 0 4.099 1.767 6.342t4.593 2.243q4.344 0 6.482-3.427t2.138-11.235Q5.3 29.148 1.979 29.147Z" style="fill:none;stroke:#000;stroke-width:2.713;stroke-linecap:butt;stroke-linejoin:miter;stroke-miterlimit:10;stroke-dasharray:none;stroke-opacity:1" transform="matrix(1.3333 0 0 -1.3333 6232.8 440.03)"/></g><text xml:space="preserve" transform="translate(268.7 363.77)scale(-1.3333)"><tspan x="0" y="0" style="font-variant:normal;font-weight:700;font-stretch:normal;font-size:72.3553px;font-family:Rockwell;writing-mode:lr-tb;fill:#fff;fill-opacity:1;fill-rule:nonzero;stroke:none">6</tspan></text><path d="M0 0q10.953 0 16.588 7.137t5.635 20.95q0 13.744-5.211 20.279-5.21 6.537-16.2 6.536-8.619 0-13.531-4.946-4.91-4.945-4.91-13.496 0-4.769 2.173-8.567t6.076-6.006q3.906-2.208 8.956-2.208 5.583 0 9.858 2.756-.46-6.501-2.774-10.017T.53 8.903q-5.158 0-6.96 6.642l-10.493-.919Q-15.191 0 0 0Zm1.979 29.147q-3.498 0-5.476 2.102-1.979 2.103-1.979 5.953 0 4.099 1.767 6.342t4.593 2.243q4.344 0 6.482-3.427t2.138-11.235Q5.3 29.148 1.979 29.147Z" style="fill:none;stroke:#231f20;stroke-width:2.713;stroke-linecap:butt;stroke-linejoin:miter;stroke-miterlimit:10;stroke-dasharray:none;stroke-opacity:1" transform="matrix(1.3333 0 0 -1.3333 235.4 436.03)"/><path d="M0 0c46.209 70.703 52.909 148.12 14.964 172.92S-91.2 160.51-137.41 89.805c-46.21-70.702-52.91-148.122-14.96-172.921C-114.43-107.92-46.209-70.703 0 0Z" style="fill:none;stroke:#fff;stroke-width:8.608;stroke-linecap:butt;stroke-linejoin:miter;stroke-miterlimit:10;stroke-dasharray:none;stroke-opacity:1" transform="matrix(1.3333 0 0 -1.3333 241.1 294.08)"/></svg>